<?xml version="1.0" standalone="no"?>
<!DOCTYPE svg PUBLIC "-//W3C//DTD SVG 20010904//EN"
 "http://www.w3.org/TR/2001/REC-SVG-20010904/DTD/svg10.dtd">
<svg version="1.0" xmlns="http://www.w3.org/2000/svg"
 width="453.000000pt" height="317.000000pt" viewBox="0 0 453.000000 317.000000"
 preserveAspectRatio="xMidYMid meet">

<g transform="translate(0.000000,317.000000) scale(0.100000,-0.100000)"
fill="#000000" stroke="none">
<path d="M2345 2968 c-89 -32 -174 -128 -176 -197 0 -34 -1 -35 -10 -11 -10
24 -11 24 -25 6 -32 -44 -7 -185 48 -275 12 -20 40 -55 62 -79 75 -82 12 -59
-74 27 -52 52 -88 121 -97 187 -3 24 -9 47 -13 49 -23 14 -100 -267 -100 -361
0 -72 74 -181 219 -321 101 -99 103 -123 4 -48 -76 57 -188 174 -244 256 l-44
64 -9 -99 c-4 -56 -4 -175 1 -271 8 -157 11 -175 37 -228 15 -32 26 -60 24
-63 -3 -2 -26 14 -52 37 -58 51 -70 45 -20 -10 64 -71 272 -199 409 -251 32
-12 32 -13 45 235 37 728 49 792 43 218 -5 -402 -4 -473 8 -473 39 0 249 141
322 216 40 41 50 71 20 59 -90 -37 -98 -34 -46 21 45 47 77 133 93 247 7 43
10 80 8 83 -3 2 -29 -21 -60 -50 -53 -51 -115 -93 -124 -83 -3 2 13 26 35 52
54 66 86 127 110 215 22 78 29 220 11 220 -5 0 -10 -7 -10 -16 0 -35 -54 -125
-99 -166 -96 -87 -148 -92 -63 -6 61 61 110 156 123 240 17 103 -15 256 -74
356 l-21 35 -9 -26 c-12 -38 -24 -34 -19 7 5 42 -16 82 -69 134 -32 32 -118
85 -131 81 -2 0 -16 -5 -33 -11z"/>
<path d="M4021 2344 c0 -11 3 -14 6 -6 3 7 2 16 -1 19 -3 4 -6 -2 -5 -13z"/>
<path d="M3145 2324 c-83 -14 -199 -49 -292 -90 -29 -12 -33 -18 -33 -54 0
-22 4 -40 10 -40 5 0 33 11 63 24 185 85 443 99 577 31 62 -31 130 -109 154
-174 15 -43 18 -71 14 -154 -3 -56 -11 -115 -18 -132 -28 -67 -36 -82 -66
-130 -112 -176 -325 -297 -619 -350 -103 -19 -331 -19 -427 -1 -190 38 -380
118 -569 242 -239 155 -328 208 -443 264 -271 131 -519 185 -786 171 -81 -4
-47 -18 46 -20 63 -1 215 -24 269 -41 17 -5 68 -21 115 -36 116 -36 306 -130
425 -209 55 -37 162 -117 240 -179 190 -152 254 -196 360 -248 222 -109 475
-128 757 -57 253 63 523 219 653 377 108 130 155 253 155 403 0 156 -46 252
-157 327 -87 58 -140 73 -278 77 -66 2 -133 1 -150 -1z"/>
<path d="M4042 2290 c0 -14 2 -19 5 -12 2 6 2 18 0 25 -3 6 -5 1 -5 -13z"/>
<path d="M4050 2176 c0 -113 -65 -306 -149 -441 -54 -86 -182 -227 -276 -304
-60 -48 1 -13 72 42 70 54 154 143 191 202 14 22 29 42 33 45 14 9 96 193 112
250 16 57 34 240 23 240 -3 0 -6 -15 -6 -34z"/>
<path d="M455 1891 c-11 -5 -38 -14 -60 -21 -127 -39 -252 -105 -296 -156 -67
-77 -29 -184 65 -184 38 0 72 35 86 87 27 103 100 185 209 239 33 16 61 32 61
37 0 9 -39 8 -65 -2z"/>
<path d="M2810 1714 c0 -43 -29 -128 -59 -176 -38 -59 -98 -107 -199 -158 -45
-23 -80 -46 -76 -51 9 -15 114 -10 152 8 21 9 69 49 108 87 99 99 134 196 103
285 -13 38 -29 41 -29 5z"/>
<path d="M1425 1535 c-220 -96 -448 -309 -501 -468 -21 -62 -21 -161 0 -208
21 -49 82 -102 152 -130 53 -22 73 -24 204 -23 182 2 257 22 479 131 166 82
230 98 291 73 34 -14 90 -73 90 -95 0 -19 -3 -19 -48 4 -49 25 -100 34 -136
23 -47 -13 -44 -32 4 -32 58 0 101 -23 148 -79 38 -45 117 -95 135 -84 15 9 6
25 -39 68 -46 45 -55 77 -22 83 11 2 23 -9 35 -30 l18 -33 3 28 c7 56 -70 140
-166 185 -44 20 -64 23 -104 19 -46 -6 -78 -20 -303 -136 -341 -174 -696 -130
-732 92 -7 43 18 136 53 195 80 138 303 292 536 373 55 18 65 25 56 36 -10 12
-61 43 -70 43 -2 0 -39 -16 -83 -35z"/>
<path d="M2790 1411 c0 -5 -16 -30 -35 -55 -19 -26 -35 -48 -35 -51 0 -3 16
-5 35 -5 24 0 37 6 45 19 13 25 13 101 0 101 -5 0 -10 -4 -10 -9z"/>
<path d="M1907 1273 c-8 -7 7 -43 43 -101 20 -33 70 -84 138 -141 59 -49 116
-99 127 -111 l20 -22 5 88 c3 49 4 94 2 101 -2 6 -29 21 -60 32 -75 29 -203
99 -240 133 -17 14 -33 24 -35 21z"/>
<path d="M2303 763 c5 -278 20 -551 33 -610 2 -13 11 -23 18 -23 8 0 16 10 20
23 3 12 6 219 6 460 l0 437 -26 10 c-60 23 -57 39 -51 -297z"/>
<path d="M2439 1009 c0 -19 -2 -52 -4 -73 -7 -64 4 -69 57 -30 46 33 106 109
96 120 -3 3 -38 8 -77 11 l-71 6 -1 -34z"/>
<path d="M2663 1018 c-5 -7 -15 -26 -23 -42 -21 -40 -93 -111 -146 -142 -25
-14 -49 -34 -54 -44 -12 -23 -13 -77 -2 -84 13 -8 183 106 219 147 39 44 78
112 87 150 6 26 5 27 -33 27 -21 0 -43 -6 -48 -12z"/>
<path d="M4233 878 c-26 -13 -49 -57 -63 -125 -30 -135 -151 -229 -335 -259
-104 -18 -183 -17 -328 1 -220 27 -392 79 -616 186 -68 32 -130 59 -138 59
-21 0 -83 -28 -83 -38 0 -10 130 -73 260 -126 242 -98 557 -151 762 -127 276
32 518 119 625 226 50 51 53 57 53 104 0 42 -5 54 -31 80 -32 32 -66 39 -106
19z"/>
<path d="M1849 684 c-38 -42 -177 -143 -241 -175 -102 -52 -198 -78 -292 -81
-47 -2 -86 -6 -86 -10 0 -14 171 -8 234 8 125 32 347 171 406 254 26 37 12 39
-21 4z"/>
<path d="M1150 463 c0 -13 48 -38 57 -30 3 4 0 7 -7 7 -7 0 -22 7 -32 17 -10
9 -18 12 -18 6z"/>
</g>
</svg>
