<?xml version="1.0" encoding="UTF-8" standalone="no"?>
<!-- Created with Inkscape (http://www.inkscape.org/) -->

<svg
   version="1.1"
   id="svg1"
   width="312"
   height="244"
   viewBox="0 0 312 244"
   sodipodi:docname="LuzDeTinta.png"
   inkscape:version="1.4 (86a8ad7, 2024-10-11)"
   xmlns:inkscape="http://www.inkscape.org/namespaces/inkscape"
   xmlns:sodipodi="http://sodipodi.sourceforge.net/DTD/sodipodi-0.dtd"
   xmlns="http://www.w3.org/2000/svg"
   xmlns:svg="http://www.w3.org/2000/svg">
  <defs
     id="defs1" />
  <sodipodi:namedview
     id="namedview1"
     pagecolor="#ffffff"
     bordercolor="#000000"
     borderopacity="0.25"
     inkscape:showpageshadow="2"
     inkscape:pageopacity="0.0"
     inkscape:pagecheckerboard="0"
     inkscape:deskcolor="#d1d1d1"
     inkscape:zoom="3.2090164"
     inkscape:cx="155.81098"
     inkscape:cy="109.84674"
     inkscape:window-width="1920"
     inkscape:window-height="1001"
     inkscape:window-x="-9"
     inkscape:window-y="-9"
     inkscape:window-maximized="1"
     inkscape:current-layer="g1" />
  <g
     inkscape:groupmode="layer"
     inkscape:label="Image"
     id="g1">
    <path
       style="fill:#000000;stroke-width:0.311622;fill-opacity:1"
       d="m 146.13159,117.37366 c -6.43051,-2.80883 -10.39424,-4.99227 -13.91554,-7.66542 -2.44557,-1.85653 -6.32078,-5.9119 -6.32078,-6.61463 0,-0.14808 1.1494,0.50029 2.55422,1.44082 1.40482,0.94053 2.59647,1.6678 2.64811,1.61616 0.0516,-0.0516 -0.24692,-1.09598 -0.66349,-2.32075 -1.392,-4.092637 -2.06283,-8.362378 -2.2952,-14.6087 -0.31633,-8.503005 -0.11556,-20.041761 0.34867,-20.038396 0.20246,0.0015 0.95241,0.94802 1.66656,2.103448 4.56637,7.387984 10.59165,13.560854 16.89849,17.312436 2.69643,1.603953 3.14916,1.733572 3.14916,0.901625 0,-0.3591 -0.73594,-0.989004 -2.06131,-1.764313 -6.61049,-3.86697 -11.12795,-9.102686 -13.65843,-15.830053 -0.43534,-1.157383 -0.79259,-2.174049 -0.79388,-2.259259 -0.001,-0.08521 -0.002,-0.513781 -0.002,-0.952376 0,-0.438596 -0.11242,-0.727968 -0.24982,-0.643048 -0.39928,0.246774 -0.43336,-4.84311 -0.0554,-8.277784 0.56531,-5.137378 3.07092,-13.497558 4.04533,-13.497558 0.21263,0 0.62991,0.976805 0.94162,2.20425 1.36609,5.379289 4.31532,9.677895 9.74699,14.206579 2.76322,2.30385 2.80201,2.427859 -0.9907,-3.166895 -4.11257,-6.066577 -5.65089,-9.94338 -5.64402,-14.223781 0.006,-3.634411 0.54724,-5.551704 1.08725,-3.850293 0.12639,0.398231 0.47149,0.623244 0.95587,0.623244 0.64673,0 0.75859,-0.148725 0.76175,-1.012772 0.009,-2.441919 1.34175,-5.884042 2.98092,-7.698403 1.37441,-1.521316 2.49532,-2.163344 4.67207,-2.67606 1.39057,-0.327536 1.85978,-0.291492 3.91242,0.30055 2.61542,0.754365 4.75112,1.904526 6.5438,3.5241 0.66421,0.600075 1.20765,0.971372 1.20765,0.825105 0,-0.492653 2.44454,3.137793 3.32965,4.944938 0.48249,0.985111 0.95991,1.791433 1.06094,1.791826 0.10104,3.94e-4 0.3618,-0.384917 0.57948,-0.856245 l 0.39578,-0.85696 0.77296,1.713921 c 2.53613,5.623509 3.99074,12.28508 3.7182,17.028015 -0.13646,2.374774 -0.69111,5.575375 -1.11402,6.428493 -0.0193,0.03902 -0.12669,0.420892 -0.23853,0.8486 -0.6806,2.602604 -3.99382,7.886017 -6.88079,10.972424 -0.77347,0.826904 -1.34152,1.568259 -1.26232,1.647455 0.0792,0.0792 1.02517,-0.377293 2.10217,-1.01442 4.41492,-2.611753 8.0415,-7.010802 9.40748,-11.411288 0.40533,-1.305768 0.845,-2.37412 0.97705,-2.37412 0.41779,0 0.25954,5.726446 -0.23785,8.60669 -0.49125,2.844716 -1.51926,6.960747 -2.01431,8.065085 -1.75662,3.918622 -2.54851,5.494943 -4.27636,8.512394 -1.11061,1.939544 -1.96602,3.579723 -1.9009,3.644846 0.0651,0.06512 2.28363,-1.619431 4.93003,-3.743447 2.6464,-2.124015 4.86005,-3.813433 4.91921,-3.754265 0.25842,0.258419 -0.61094,7.45109 -1.16015,9.598455 -1.02394,4.003563 -3.21154,7.515887 -5.57929,8.957857 -0.88476,0.53882 -1.28181,0.99709 -1.28761,1.48614 -0.007,0.57286 0.12472,0.67773 0.69277,0.55244 1.94047,-0.42797 4.67892,-0.81347 4.81463,-0.67776 0.29865,0.29865 -1.91447,3.18692 -4.11729,5.37336 -3.99541,3.96567 -11.17341,8.13919 -15.03195,8.74005 l -1.01277,0.15771 0.007,-2.12887 c 0.004,-1.17088 0.2108,-11.6645 0.4597,-23.319165 0.58795,-27.531009 0.59795,-25.39719 -0.11894,-25.39719 -0.76345,0 -0.68807,-0.892155 -2.22496,26.332056 -1.28762,22.808599 -1.41028,24.475739 -1.79864,24.444869 -0.12078,-0.01 -2.54199,-1.03187 -5.38047,-2.27172 z"
       id="path2" />
    <path
       style="fill:#000000;stroke-width:0.311622;fill-opacity:1"
       d="m 164.55724,134.5976 c -8.97511,-1.01467 -17.67082,-4.32501 -27.67327,-10.53484 -1.90856,-1.1849 -3.54915,-2.07532 -3.64575,-1.97872 -0.0966,0.0966 -0.17564,0.0257 -0.17564,-0.15761 0,-0.32955 -3.35547,-2.71957 -3.82873,-2.72712 -0.1348,-0.002 -0.34515,-0.14877 -0.46744,-0.32581 -0.208,-0.30113 -2.16782,-1.7745 -4.75317,-3.57337 -0.61581,-0.42848 -3.31834,-2.35664 -6.00562,-4.28479 -9.3708,-6.72368 -17.55457,-11.595754 -23.168457,-13.792979 -4.394197,-1.71985 -8.800249,-2.7982 -19.115025,-4.678267 -7.919241,-1.443434 -14.589404,-3.039598 -16.827586,-4.026825 -1.08947,-0.480548 10.039551,-0.154753 15.581098,0.456127 13.110942,1.445303 22.752875,4.216168 33.7638,9.702921 5.23091,2.606573 7.91257,4.122203 19.29329,10.904283 19.43906,11.58425 28.30613,15.35547 40.15787,17.0794 4.26319,0.62012 13.35885,0.62549 17.68601,0.0105 13.14066,-1.86773 24.22181,-7.04036 31.9777,-14.92705 4.46098,-4.53621 7.14748,-9.06733 8.61967,-14.538182 1.01463,-3.770497 1.01488,-9.461368 5.7e-4,-12.755675 -1.5767,-5.120843 -5.11077,-9.254369 -9.86375,-11.536864 -6.3671,-3.057633 -12.36945,-3.178971 -22.43976,-0.45362 -7.15883,1.937411 -12.44047,3.265069 -12.98896,3.265069 -0.46722,0 -0.48999,-0.12694 -0.18165,-1.012771 1.20506,-3.462042 4.26322,-5.571731 10.2102,-7.043567 10.92739,-2.704452 21.95872,-2.427984 29.09779,0.729249 7.70208,3.40623 11.79054,9.908448 12.24882,19.480346 0.61232,12.789355 -6.50456,24.298645 -20.87878,33.764805 -6.90093,4.54462 -16.99872,8.95921 -25.35998,11.08697 -6.88532,1.75216 -15.55396,2.51389 -21.26325,1.86843 z"
       id="path3" />
    <path
       style="fill:#000000;stroke-width:0.311622;fill-opacity:1"
       d="m 28.363811,109.76835 c -0.596456,-0.29967 -1.416298,-1.03566 -1.82187,-1.63553 -0.645859,-0.95527 -0.720656,-1.36314 -0.602491,-3.28542 0.211675,-3.44351 1.850022,-5.666256 6.469235,-8.776799 5.391091,-3.630321 15.629926,-6.92324 18.849487,-6.062197 0.824147,0.220411 0.765543,0.275759 -1.157298,1.092977 -2.99309,1.27208 -7.407233,4.244481 -9.579262,6.450494 -1.548732,1.572965 -2.265093,2.680235 -3.788419,5.855735 -2.325375,4.84742 -2.84445,5.58387 -4.44949,6.31279 -1.602545,0.72779 -2.543844,0.7393 -3.919892,0.048 z"
       id="path4" />
    <path
       style="fill:#000000;stroke-width:0.311622;fill-opacity:1"
       d="m 141.81163,157.37677 c -2.98637,-1.69795 -6.80507,-3.83164 -8.48599,-4.74155 -3.05225,-1.65221 -4.0249,-2.6932 -2.12692,-2.27633 0.51741,0.11364 1.46396,0.25046 2.10345,0.30405 0.63949,0.0536 1.37305,0.17869 1.63014,0.27802 0.25709,0.0993 1.16858,0.23981 2.02554,0.31221 0.85696,0.0724 2.29374,0.31008 3.19284,0.5282 0.8991,0.21813 1.72668,0.30465 1.83907,0.19226 0.37637,-0.37638 -2.03108,-3.5839 -3.38345,-4.50786 -2.04165,-1.39489 -3.42416,-1.73221 -6.29523,-1.53599 -3.21637,0.21983 -4.37609,0.62505 -11.46991,4.00781 -11.91895,5.68366 -20.39017,8.05475 -28.777326,8.05475 -4.780936,0 -7.649264,-0.57198 -10.927005,-2.17896 -6.705254,-3.2874 -10.095924,-10.1723 -8.371276,-16.99823 0.641079,-2.5373 2.909145,-7.01402 4.887942,-9.64784 4.918213,-6.54625 16.751354,-15.91886 23.467825,-18.58804 1.64531,-0.65386 2.72341,-0.86952 4.38719,-0.87761 1.96033,-0.01 2.37005,0.0981 3.68138,0.96664 0.81155,0.53755 1.36145,1.07579 1.22201,1.1961 -0.13945,0.1203 -1.79607,0.75141 -3.68139,1.40246 -10.175356,3.51384 -16.369881,7.23952 -22.608423,13.59779 -5.922075,6.03573 -9.621684,12.9074 -9.639841,17.9051 -0.017,4.68002 3.507195,8.42506 9.811486,10.42631 1.672229,0.53084 3.22206,0.72906 6.640279,0.8493 8.129887,0.28597 11.100549,-0.57997 23.809559,-6.94042 9.40798,-4.70839 12.22432,-5.8036 16.39106,-6.37411 5.8276,-0.79791 11.03863,1.71037 14.42906,6.9453 1.21328,1.87334 2.35593,4.78142 2.01334,5.12401 -0.1074,0.1074 -0.96306,-0.56299 -1.90148,-1.48975 -0.93842,-0.92676 -1.70621,-1.52081 -1.70621,-1.32011 0,0.46091 2.3805,5.91467 3.00195,6.8775 1.19655,1.85385 0.23418,1.57575 -5.15967,-1.49101 z"
       id="path5" />
    <path
       style="fill:#000000;stroke-width:0.311622;fill-opacity:1"
       d="m 144.28279,143.20963 c -5.97239,-4.27529 -10.24391,-8.54882 -12.68761,-12.69356 -1.15945,-1.96654 -2.43384,-4.93242 -2.11938,-4.93242 0.14867,0 8.71944,4.70348 10.07647,5.52978 1.75383,1.06791 5.30474,3.94842 5.47598,4.44213 0.38927,1.12231 1.69525,3.11174 1.81227,2.76067 0.18059,-0.54174 0.96539,5.6518 0.82638,6.52164 -0.1062,0.66455 -0.33489,0.55452 -3.38411,-1.62824 z"
       id="path6" />
    <path
       style="fill:#000000;stroke-width:0.311622;fill-opacity:1"
       d="m 153.53601,188.6258 c -2.27918,-8.29856 -3.00027,-19.64795 -2.56298,-40.33969 l 0.23476,-11.10854 0.82139,0.24452 c 0.45177,0.13448 1.02005,0.29539 1.26286,0.35757 1.81714,0.46536 2.51903,2.8664 2.5186,8.61565 -1.8e-4,2.52204 0.29433,8.72231 0.65448,13.77838 0.75802,10.64169 0.68376,20.02169 -0.18975,23.9681 -0.51855,2.34275 -1.59995,5.58498 -2.01526,6.04212 -0.12508,0.13767 -0.45092,-0.56348 -0.7241,-1.55811 z"
       id="path7" />
    <path
       style="fill:#000000;stroke-width:0.311622;fill-opacity:1"
       d="m 159.23883,142.81739 v -4.65231 l 3.66155,0.40768 c 2.01386,0.22423 3.90438,0.44341 4.20115,0.48707 0.39047,0.0574 -0.2554,0.90642 -2.33717,3.07212 -1.58221,1.646 -3.47273,3.52036 -4.20114,4.16525 l -1.32439,1.17251 z"
       id="path8" />
    <path
       style="fill:#000000;stroke-width:0.311622;fill-opacity:1"
       d="m 159.23883,156.10247 c 0,-1.88282 2.68466,-6.28691 5.97944,-9.80903 3.22183,-3.44415 8.59964,-6.99842 10.589,-6.99842 h 0.87329 l -0.63485,1.63601 c -1.764,4.54584 -5.84731,9.64334 -9.91322,12.37539 -1.70686,1.14691 -6.1843,3.43943 -6.71743,3.43943 -0.0969,0 -0.17623,-0.28952 -0.17623,-0.64338 z"
       id="path9" />
    <path
       style="fill:#000000;stroke-width:0.311622;fill-opacity:1"
       d="m 161.7318,121.92478 c 0,-0.16694 2.43521,-2.14033 5.41158,-4.38531 5.86871,-4.4266 8.89518,-7.40776 10.39815,-10.24249 0.95701,-1.80501 2.02279,-5.04878 2.43864,-7.42214 l 0.2184,-1.246488 0.70588,1.506368 c 1.00228,2.13888 1.20449,4.33802 0.64544,7.01925 -1.17836,5.65142 -5.24469,10.62911 -11.04979,13.52628 -2.42971,1.2126 -2.81424,1.3089 -5.6871,1.42429 -1.87626,0.0754 -3.0812,0.005 -3.0812,-0.17976 z"
       id="path10" />
    <path
       style="fill:#000000;stroke-width:0.311622;fill-opacity:1"
       d=""
       id="path11" />
    <path
       style="fill:#000000;stroke-width:0.311622;fill-opacity:1"
       d=""
       id="path12" />
    <path
       style="fill:#000000;stroke-width:0.311622;fill-opacity:1"
       d="m 175.78858,123.01277 c 0.20203,-0.38563 1.00353,-1.81051 1.7811,-3.16641 1.47589,-2.57357 1.84789,-2.64424 1.90267,-0.36146 0.0441,1.83725 -0.61232,2.91051 -2.19702,3.59222 -1.85422,0.79767 -1.93651,0.79411 -1.48675,-0.0643 z"
       id="path13" />
    <path
       style="fill:#000000;stroke-width:0.311622;fill-opacity:1"
       d="m 218.60281,171.82177 c -6.54483,-0.42278 -14.46649,-1.78364 -20.87867,-3.58675 -5.57016,-1.56633 -14.70262,-4.86217 -18.3857,-6.63526 -3.49599,-1.68303 -6.68661,-3.79294 -6.69514,-4.42739 -0.006,-0.44125 2.34259,-1.04976 4.0515,-1.04976 1.66215,0 5.21133,1.19887 8.64792,2.92117 6.6193,3.31736 17.5193,7.11205 24.68682,8.59437 5.75089,1.18935 13.4229,2.19754 18.23355,2.3961 9.64484,0.3981 17.63653,-1.87145 21.39351,-6.0755 0.74519,-0.83387 2.60622,-3.60422 4.13561,-6.15634 2.77153,-4.62488 5.97262,-9.31235 6.3626,-9.31698 0.11294,-0.001 0.73778,-0.25645 1.38853,-0.56689 1.3292,-0.63411 2.34422,-0.52266 4.52603,0.49694 1.79744,0.83998 2.35803,1.74449 2.16155,3.48768 -0.1439,1.27675 -2.27778,5.51247 -2.70528,5.36997 -0.0987,-0.0329 -0.20422,0.0749 -0.23438,0.23961 -0.0302,0.1647 -0.31063,0.38918 -0.62324,0.49884 -0.31262,0.10966 -0.5684,0.39559 -0.5684,0.63541 0,0.23981 -0.17529,0.43602 -0.38953,0.43602 -0.21424,0 -0.42459,0.13847 -0.46743,0.30771 -0.20302,0.80185 -7.27388,5.64705 -9.98193,6.83996 -4.64662,2.04687 -11.55517,3.90591 -18.06645,4.86157 -3.96858,0.58246 -12.8337,0.97226 -16.59147,0.72952 z"
       id="path14" />
    <path
       style="fill:#000000;stroke-width:0.311622;fill-opacity:1"
       d="m 249.61874,88.812261 c 0,-0.257089 0.13593,-0.677778 0.30208,-0.934866 0.26851,-0.415496 0.30208,-0.415496 0.30208,0 0,0.257088 -0.13594,0.677777 -0.30208,0.934866 -0.26852,0.415495 -0.30208,0.415495 -0.30208,0 z"
       id="path15" />
    <path
       style="fill:#000000;stroke-width:0.311622;fill-opacity:1"
       d=""
       id="path16" />
    <path
       style="fill:#000000;stroke-width:0.311622;fill-opacity:1"
       d="m 221.2516,119.41006 c 0,-0.16222 1.08678,-1.10641 2.41507,-2.09819 14.19672,-10.6001 22.61962,-23.408906 25.62113,-38.962386 0.34816,-1.804126 0.63516,-3.798972 0.63779,-4.432992 0.008,-1.853797 0.52107,-0.594487 0.95976,2.35419 0.92912,6.245123 -1.6427,14.586082 -6.9004,22.379459 -4.05639,6.012709 -10.04049,12.334799 -15.62033,16.502599 -3.45245,2.57877 -7.11302,4.76972 -7.11302,4.25732 z"
       id="path17" />
    <path
       style="fill:#000000;stroke-width:0.311622;fill-opacity:1"
       d=""
       id="path18" />
    <path
       style="fill:#000000;stroke-width:0.311622;fill-opacity:1"
       d="m 93.446274,174.21156 c -0.793438,-0.14525 -2.117902,-0.56279 -2.943252,-0.92789 -1.494873,-0.66125 -3.702226,-2.16535 -3.489688,-2.37789 0.06146,-0.0615 1.227563,0.26143 2.591348,0.71753 2.248767,0.75206 2.914771,0.82885 7.153939,0.82487 4.203889,-0.004 4.956599,-0.0906 7.478929,-0.86113 6.46237,-1.97414 13.07754,-5.92733 20.02171,-11.96487 1.24259,-1.08036 2.25926,-1.88346 2.25926,-1.78465 0,1.55075 -4.96274,6.88786 -8.67645,9.33097 -7.7746,5.11463 -18.311965,8.15676 -24.395796,7.04306 z"
       id="path19" />
  </g>
</svg>
