<?xml version="1.0" encoding="UTF-8" standalone="no"?>
<svg
   width="34.071999"
   height="30.000511"
   viewBox="0 0 34.071997 30.000511"
   version="1.1"
   id="svg1"
   xmlns="http://www.w3.org/2000/svg"
   xmlns:svg="http://www.w3.org/2000/svg">
  <defs
     id="defs1" />
  <path
     id="Bluesky_Logo"
     d="m 7.385,2.0191632 c 3.906,2.933 8.108,8.8789998 9.651,12.0699998 1.543,-3.191 5.744,-9.1369998 9.651,-12.0699998 2.819,-2.11600004 7.385,-3.753 7.385,1.457 0,1.04 -0.6,8.7409998 -0.946,9.9909998 -1.216,4.346 -5.648,5.455 -9.59,4.784 6.891,1.173 8.644,5.057 4.858,8.942 -7.191,7.377 -10.334,-1.848 -11.14,-4.216 -0.148,-0.434 -0.217,-0.636 -0.218,-0.464 0,-0.172 -0.07,0.03 -0.218,0.464 -0.806,2.365 -3.95,11.594 -11.14,4.216 -3.786,-3.885 -2.033,-7.77 4.858,-8.942 -3.942,0.671 -8.374,-0.438 -9.59,-4.784 C 0.596,12.217163 0,4.5171632 0,3.4761632 c 0,-5.21 4.567,-3.57300004 7.385,-1.457 z"
     fill="#ffffff" />
</svg>
