<?xml version="1.0" encoding="UTF-8" standalone="no"?>
<svg
   width="34.073"
   height="30"
   viewBox="0 0 34.073 30"
   version="1.1"
   id="svg1"
   sodipodi:docname="ico-bluesky-negro.svg"
   inkscape:version="1.4 (86a8ad7, 2024-10-11)"
   xmlns:inkscape="http://www.inkscape.org/namespaces/inkscape"
   xmlns:sodipodi="http://sodipodi.sourceforge.net/DTD/sodipodi-0.dtd"
   xmlns="http://www.w3.org/2000/svg"
   xmlns:svg="http://www.w3.org/2000/svg">
  <defs
     id="defs1" />
  <sodipodi:namedview
     id="namedview1"
     pagecolor="#ffffff"
     bordercolor="#000000"
     borderopacity="0.25"
     inkscape:showpageshadow="2"
     inkscape:pageopacity="0.0"
     inkscape:pagecheckerboard="0"
     inkscape:deskcolor="#d1d1d1"
     inkscape:zoom="26.1"
     inkscape:cx="17.049808"
     inkscape:cy="15"
     inkscape:window-width="1920"
     inkscape:window-height="1001"
     inkscape:window-x="-9"
     inkscape:window-y="-9"
     inkscape:window-maximized="1"
     inkscape:current-layer="svg1" />
  <path
     id="Bluesky_Logo"
     d="M17.382,11.674c3.906,2.933,8.108,8.879,9.651,12.07,1.543-3.191,5.744-9.137,9.651-12.07,2.819-2.116,7.385-3.753,7.385,1.457,0,1.04-.6,8.741-.946,9.991-1.216,4.346-5.648,5.455-9.59,4.784,6.891,1.173,8.644,5.057,4.858,8.942C31.2,44.225,28.057,35,27.251,32.632c-.148-.434-.217-.636-.218-.464,0-.172-.07.03-.218.464-.806,2.365-3.95,11.594-11.14,4.216-3.786-3.885-2.033-7.77,4.858-8.942-3.942.671-8.374-.438-9.59-4.784-.35-1.25-.946-8.95-.946-9.991,0-5.21,4.567-3.573,7.385-1.457Z"
     transform="translate(-9.996 -9.655)"
     fill="#fff"
     style="fill:#000000;fill-opacity:1" />
</svg>
