<?xml version="1.0" encoding="UTF-8" standalone="no"?>
<!-- Created with Inkscape (http://www.inkscape.org/) -->

<svg
   version="1.1"
   id="svg1"
   width="244.04811"
   height="23.733259"
   viewBox="0 0 244.04811 23.733259"
   sodipodi:docname="LuzDeTinta.svg"
   inkscape:version="1.4 (86a8ad7, 2024-10-11)"
   xmlns:inkscape="http://www.inkscape.org/namespaces/inkscape"
   xmlns:sodipodi="http://sodipodi.sourceforge.net/DTD/sodipodi-0.dtd"
   xmlns="http://www.w3.org/2000/svg"
   xmlns:svg="http://www.w3.org/2000/svg">
  <defs
     id="defs1" />
  <sodipodi:namedview
     id="namedview1"
     pagecolor="#ffffff"
     bordercolor="#000000"
     borderopacity="0.25"
     inkscape:showpageshadow="2"
     inkscape:pageopacity="0.0"
     inkscape:pagecheckerboard="0"
     inkscape:deskcolor="#d1d1d1"
     inkscape:zoom="3.2090164"
     inkscape:cx="121.84419"
     inkscape:cy="32.564496"
     inkscape:window-width="1920"
     inkscape:window-height="1001"
     inkscape:window-x="-9"
     inkscape:window-y="-9"
     inkscape:window-maximized="1"
     inkscape:current-layer="g1">
    <inkscape:page
       x="1.3375406e-07"
       y="1.8138865e-06"
       width="244.04811"
       height="23.733259"
       id="page2"
       margin="0"
       bleed="0" />
  </sodipodi:namedview>
  <g
     inkscape:groupmode="layer"
     inkscape:label="Image"
     id="g1"
     transform="translate(-33.934868,-214.12325)">
    <path
       id="path40"
       style="display:inline;fill:#ffffff;fill-opacity:1"
       d="M 268.11846 214.12325 L 263.61456 223.8088 C 261.13747 229.1361 258.8147 234.4236 258.4544 235.5588 C 257.49095 238.59435 260.34324 238.21785 261.75323 235.12325 C 262.76894 232.89401 263.49325 232.62325 268.43877 232.62325 C 273.43457 232.62325 274.07869 232.87135 274.93487 235.12325 C 275.45764 236.49825 276.55461 237.62325 277.37237 237.62325 C 278.5293 237.62325 278.11458 235.88576 275.50518 229.78927 C 273.66078 225.4801 271.2435 220.1926 270.13409 218.03927 L 268.11846 214.12325 z M 268.25518 221.32052 C 269.03096 221.30909 269.81749 223.09848 271.50323 227.13302 L 272.96221 230.62325 L 268.44854 230.62325 C 265.96615 230.62325 263.93487 230.1561 263.93487 229.58419 C 263.93487 229.01227 264.88521 226.68218 266.0462 224.40645 C 267.05557 222.42791 267.6518 221.3294 268.25518 221.32052 z " />
    <path
       style="display:inline;fill:#ffffff;fill-opacity:1"
       d="m 244.93487,227.62324 v -10 h -4 c -2.2,0 -4,-0.45 -4,-1 0,-0.59259 3.66666,-1 9,-1 5.33333,0 9,0.40741 9,1 0,0.55 -1.8,1 -4,1 h -4 v 10 c 0,6 -0.4,10 -1,10 -0.6,0 -1,-4 -1,-10 z"
       id="path38" />
    <path
       style="display:inline;fill:#ffffff;fill-opacity:1"
       d="m 208.93487,226.12324 c 0,-6.325 0.39333,-11.5 0.87408,-11.5 0.48074,0 4.41824,4.14651 8.75,9.21447 l 7.87592,9.21447 0.28893,-8.71447 c 0.22693,-6.84448 0.60245,-8.71447 1.75,-8.71447 1.19287,0 1.46107,2.01917 1.46107,11 0,8.73108 -0.28709,11 -1.39181,11 -0.7655,0 -4.63918,-3.825 -8.60819,-8.5 -3.96902,-4.675 -7.63716,-8.5 -8.15143,-8.5 -0.53476,0 -0.71482,2.65014 -0.4206,6.19064 0.54464,6.55413 -0.0602,10.80936 -1.53638,10.80936 -0.49038,0 -0.89159,-5.175 -0.89159,-11.5 z"
       id="path37" />
    <path
       style="display:inline;fill:#ffffff;fill-opacity:1"
       d="m 195.93487,226.53991 c 0,-8.42044 0.30032,-10.98403 1.25,-10.67001 2.41195,0.79754 2.12746,21.75334 -0.29532,21.75334 -0.54882,0 -0.95468,-4.71181 -0.95468,-11.08333 z"
       id="path36" />
    <path
       style="display:inline;fill:#ffffff;fill-opacity:1"
       d="m 178.93487,227.62324 v -10 h -4 c -2.2,0 -4,-0.45 -4,-1 0,-0.59259 3.66666,-1 9,-1 8.83328,0 12.62065,1.57961 5.25,2.18964 -3.48183,0.28817 -3.73625,0.5249 -3.55766,3.31036 0.3427,5.34533 -0.87,16.5 -1.79384,16.5 -0.49418,0 -0.8985,-4.5 -0.8985,-10 z"
       id="path35" />
    <path
       style="display:inline;fill:#ffffff;fill-opacity:1"
       d="m 143.38883,236.36388 c -0.26579,-0.69265 -0.29248,-4.85515 -0.0593,-9.25 0.23317,-4.39485 0.46476,-8.77814 0.51464,-9.74064 0.0758,-1.46214 1.07763,-1.75 6.0907,-1.75 3.33333,0 6,0.44445 6,1 0,0.55 -2.27717,1 -5.06037,1 h -5.06036 l 0.31036,3.75 c 0.30126,3.64004 0.43499,3.75902 4.56037,4.0575 5.66496,0.40988 5.4617,2.1925 -0.25,2.1925 h -4.5 v 4 4 h 5 c 2.75,0 5,0.45 5,1 0,1.51512 -11.95998,1.26787 -12.54604,-0.25936 z"
       id="path34" />
    <path
       id="path33"
       style="display:inline;fill:#ffffff;fill-opacity:1"
       d="M 116.93487 215.62325 L 116.93487 226.74044 L 116.93487 237.85567 L 123.41729 237.44356 C 128.84015 237.09826 130.37637 236.5735 132.81768 234.23458 C 136.22649 230.96872 137.0755 227.71511 135.75909 222.94747 C 134.42829 218.12773 129.97075 215.63216 122.68487 215.62716 L 116.93487 215.62325 z M 119.93487 217.62325 L 123.18487 217.63888 C 133.18292 217.68422 137.61645 228.79689 129.58916 233.69161 C 127.85414 234.74955 124.97237 235.61734 123.18487 235.61934 L 119.93487 235.62325 L 119.93487 226.62325 L 119.93487 217.62325 z " />
    <path
       style="display:inline;fill:#ffffff;fill-opacity:1"
       d="m 81.554646,236.37324 c 0.405798,-0.6875 3.368963,-5.1875 6.584811,-10 l 5.846995,-8.75 h -6.025793 c -3.350529,0 -6.025793,-0.44396 -6.025793,-1 0,-0.58333 3.333333,-1 8,-1 4.4,0 8,0.27846 8,0.6188 0,0.34034 -2.493961,4.17795 -5.542136,8.52802 -7.824351,11.16618 -7.808061,10.85318 -0.564853,10.85318 3.404659,0 6.106989,0.4425 6.106989,1 0,0.58878 -3.519672,1 -8.559017,1 -6.574048,0 -8.387906,-0.28989 -7.821203,-1.25 z"
       id="path31" />
    <path
       style="display:inline;fill:#ffffff;fill-opacity:1"
       d="m 56.389411,235.1687 c -2.220418,-2.22042 -2.454545,-3.26403 -2.454545,-10.94098 0,-11.13142 1.625702,-11.95735 2.194778,-1.11505 0.333379,6.3517 0.900144,8.95798 2.279449,10.4821 2.196232,2.4268 7.697413,2.71398 9.894863,0.51653 1.586823,-1.58683 2.946736,-8.24339 2.551922,-12.49127 -0.367873,-3.95801 -0.001,-5.99679 1.078988,-5.99679 0.588652,0 1,3.51516 1,8.54546 0,7.73962 -0.231464,8.77692 -2.454546,11 -1.893189,1.89319 -3.504489,2.45454 -7.045454,2.45454 -3.540965,0 -5.152265,-0.56135 -7.045455,-2.45454 z"
       id="path30" />
    <path
       style="display:inline;fill:#ffffff;fill-opacity:1"
       d="m 33.934866,226.62324 c 0,-9.11111 0.257576,-11 1.5,-11 1.233333,0 1.5,1.77778 1.5,10 v 10 h 5 c 2.75,0 5,0.45 5,1 0,0.56411 -2.833333,1 -6.5,1 h -6.5 z"
       id="path2" />
  </g>
</svg>
