<?xml version="1.0" encoding="UTF-8" standalone="no"?>
<!-- Created with Inkscape (http://www.inkscape.org/) -->

<svg
   version="1.1"
   id="svg1"
   width="251.69147"
   height="238.07918"
   viewBox="0 0 251.69147 238.07918"
   sodipodi:docname="LuzDeTinta_logo_blanca-negro.svg"
   inkscape:version="1.4 (86a8ad7, 2024-10-11)"
   xmlns:inkscape="http://www.inkscape.org/namespaces/inkscape"
   xmlns:sodipodi="http://sodipodi.sourceforge.net/DTD/sodipodi-0.dtd"
   xmlns="http://www.w3.org/2000/svg"
   xmlns:svg="http://www.w3.org/2000/svg">
  <defs
     id="defs1" />
  <sodipodi:namedview
     id="namedview1"
     pagecolor="#ffffff"
     bordercolor="#000000"
     borderopacity="0.25"
     inkscape:showpageshadow="2"
     inkscape:pageopacity="0.0"
     inkscape:pagecheckerboard="0"
     inkscape:deskcolor="#d1d1d1"
     inkscape:zoom="1.6045082"
     inkscape:cx="131.19285"
     inkscape:cy="116.23499"
     inkscape:window-width="1920"
     inkscape:window-height="1001"
     inkscape:window-x="-9"
     inkscape:window-y="-9"
     inkscape:window-maximized="1"
     inkscape:current-layer="g1" />
  <g
     inkscape:groupmode="layer"
     inkscape:label="Image"
     id="g1"
     transform="translate(-22.87919,-1.8697281)">
    <circle
       style="display:inline;fill:#000000;fill-opacity:1"
       id="path1"
       cx="154.87611"
       cy="120.90932"
       r="119.03959" />
    <path
       style="fill:#ffffff;fill-opacity:1;stroke-width:0.453269"
       d="m 149.70213,134.5855 c -9.34075,-4.09114 -15.09833,-7.27139 -20.21325,-11.16491 -3.55235,-2.70409 -9.18135,-8.61086 -9.18135,-9.6344 0,-0.21569 1.66958,0.72868 3.71017,2.09859 2.0406,1.36991 3.77155,2.4292 3.84656,2.35399 0.075,-0.0752 -0.35867,-1.59633 -0.96377,-3.38024 -2.02197,-5.96106 -2.99639,-12.18006 -3.33393,-21.278009 -0.45949,-12.38488 -0.16786,-29.191422 0.50647,-29.186521 0.29409,0.0022 1.38344,1.38082 2.42079,3.063735 6.63295,10.760819 15.38507,19.751787 24.54618,25.216078 3.91674,2.336204 4.57436,2.524999 4.57436,1.313244 0,-0.52304 -1.069,-1.440514 -2.99419,-2.569774 -9.60217,-5.632357 -16.16408,-13.258334 -19.83977,-23.056944 -0.63237,-1.685763 -1.15129,-3.166567 -1.15317,-3.290678 -0.001,-0.124111 -0.003,-0.748337 -0.003,-1.387164 0,-0.638828 -0.1633,-1.060307 -0.36288,-0.936618 -0.57998,0.359433 -0.62949,-7.054134 -0.0805,-12.056839 0.82115,-7.482744 4.46072,-19.659595 5.87612,-19.659595 0.30885,0 0.91498,1.422745 1.36776,3.210556 1.98434,7.835094 6.26829,14.096142 14.15815,20.692305 4.01376,3.355626 4.07011,3.536249 -1.43906,-4.612677 -5.97378,-8.83615 -8.20829,-14.482829 -8.19831,-20.71736 0.009,-5.293628 0.7949,-8.086223 1.5793,-5.608067 0.18359,0.580035 0.68487,0.907774 1.38847,0.907774 0.93942,0 1.1019,-0.216623 1.10649,-1.475133 0.0131,-3.556728 1.94898,-8.570282 4.32998,-11.212953 1.99643,-2.2158421 3.62462,-3.150975 6.7865,-3.8977611 2.01989,-0.477066 2.70145,-0.4245668 5.68305,0.43776 3.79907,1.0987551 6.90132,2.7739991 9.5053,5.1329561 0.96481,0.874028 1.75419,1.414833 1.75419,1.20179 0,-0.717563 3.55086,4.570289 4.83654,7.20245 0.70085,1.434843 1.39434,2.609275 1.54109,2.609848 0.14677,5.74e-4 0.52554,-0.560643 0.84173,-1.247147 l 0.5749,-1.248187 1.12277,2.496377 c 3.6839,8.190808 5.79682,17.893584 5.40094,24.80181 -0.19822,3.458929 -1.00389,8.1207 -1.61819,9.363292 -0.028,0.05683 -0.18403,0.613041 -0.34648,1.236011 -0.98862,3.79077 -5.80129,11.486218 -9.99481,15.981662 -1.12351,1.20441 -1.94864,2.284216 -1.8336,2.399567 0.11504,0.115357 1.48913,-0.549538 3.05354,-1.477533 6.41297,-3.804096 11.68081,-10.211441 13.66499,-16.62088 0.58877,-1.90189 1.22742,-3.457977 1.41923,-3.457977 0.60687,0 0.377,8.340739 -0.34549,12.5359 -0.71357,4.143414 -2.20683,10.138536 -2.92592,11.747037 -2.55161,5.707589 -3.70188,8.003548 -6.2117,12.398555 -1.61323,2.825006 -2.85577,5.213977 -2.76118,5.308827 0.0946,0.09482 3.31712,-2.358748 7.16119,-5.452442 3.84408,-3.093691 7.05955,-5.554379 7.14548,-5.468199 0.37538,0.376395 -0.88743,10.852737 -1.68519,13.980434 -1.48734,5.83132 -4.66498,10.94711 -8.10429,13.04739 -1.28517,0.7848 -1.86191,1.45229 -1.87034,2.1646 -0.0102,0.83439 0.18116,0.98714 1.0063,0.80465 2.81866,-0.62335 6.79644,-1.18484 6.99357,-0.98718 0.4338,0.43499 -2.7809,4.64185 -5.98064,7.82646 -5.8036,5.77612 -16.23012,11.85497 -21.83491,12.73014 l -1.47112,0.22971 0.0102,-3.10076 c 0.006,-1.70542 0.3062,-16.98969 0.66775,-33.96507 0.85403,-40.099722 0.86856,-36.991751 -0.17277,-36.991751 -1.10896,0 -0.99947,-1.29945 -3.2319,38.353421 -1.87036,33.22141 -2.04853,35.64964 -2.61265,35.60468 -0.17544,-0.0146 -3.69241,-1.50295 -7.81549,-3.30883 z"
       id="path2" />
    <path
       style="fill:#6cbfbf;fill-opacity:1;stroke-width:0.453269"
       d="m 176.46661,159.67269 c -13.03694,-1.4779 -25.66804,-6.29951 -40.19727,-15.34431 -2.77231,-1.72584 -5.15537,-3.02277 -5.29569,-2.88207 -0.14032,0.1407 -0.25513,0.0374 -0.25513,-0.22956 0,-0.48 -4.87404,-3.96114 -5.56148,-3.97213 -0.19581,-0.003 -0.50136,-0.21669 -0.67899,-0.47455 -0.30214,-0.43861 -3.1489,-2.58462 -6.9043,-5.20472 -0.8945,-0.6241 -4.82011,-3.43252 -8.72356,-6.24093 C 95.23848,115.53118 83.351009,108.43487 75.196461,105.23454 68.813602,102.72952 62.413518,101.15887 47.43062,98.420496 35.927395,96.318097 26.23854,93.993237 22.987432,92.555311 c -1.582528,-0.699932 14.583115,-0.225402 22.632581,0.664363 19.044515,2.105128 33.050072,6.140968 49.044165,14.132596 7.598242,3.79655 11.493532,6.00411 28.024792,15.88241 28.23652,16.8728 41.11653,22.3657 58.33197,24.87665 6.19257,0.90323 19.40462,0.91105 25.69011,0.0153 19.08768,-2.72041 35.18379,-10.2545 46.44974,-21.74169 6.47987,-6.60713 10.38219,-13.20684 12.52064,-21.1753 1.47382,-5.491842 1.47418,-13.780764 8.3e-4,-18.57902 -2.29026,-7.45866 -7.42374,-13.479264 -14.32776,-16.803786 -9.24863,-4.453533 -17.96744,-4.630265 -32.59524,-0.660711 -10.39868,2.821897 -18.07061,4.755671 -18.86733,4.755671 -0.67867,0 -0.71174,-0.184892 -0.26386,-1.475131 1.75043,-5.042568 6.19261,-8.115393 14.831,-10.259165 15.87276,-3.939115 31.8965,-3.536431 42.26647,1.062172 11.18779,4.961276 17.12655,14.43195 17.79223,28.373704 0.88943,18.628076 -9.44831,35.391696 -30.32782,49.179446 -10.02406,6.61937 -24.69177,13.04935 -36.83706,16.1485 -10.00138,2.55207 -22.59316,3.66156 -30.88628,2.72142 z"
       id="path3"
       sodipodi:nodetypes="cssscsscssssssscsssssssssssscc" />
    <path
       style="fill:#ffffff;fill-opacity:1;stroke-width:0.453269"
       d="m 147.01662,168.21636 c -8.67529,-6.22708 -14.87996,-12.45161 -18.4296,-18.48854 -1.68417,-2.86433 -3.53531,-7.18422 -3.07854,-7.18422 0.21596,0 12.66557,6.85076 14.63675,8.05429 2.54755,1.55544 7.70548,5.75099 7.95422,6.47009 0.56544,1.63468 2.46247,4.53234 2.63245,4.021 0.26231,-0.78906 1.40229,8.23202 1.20037,9.49896 -0.15427,0.96794 -0.48645,0.80768 -4.91565,-2.37158 z"
       id="path6" />
    <path
       style="fill:#ffffff;fill-opacity:1;stroke-width:0.453269"
       d="m 160.45754,234.36637 c -3.31066,-12.0871 -4.35809,-28.61783 -3.7229,-58.75596 l 0.34101,-16.17992 1.19312,0.35615 c 0.65622,0.19587 1.48169,0.43024 1.83439,0.52081 2.63951,0.67781 3.65906,4.175 3.65843,12.54895 -2.6e-4,3.67343 0.42753,12.70431 0.95068,20.06862 1.10107,15.49994 0.9932,29.16219 -0.27563,34.91025 -0.75323,3.41229 -2.32403,8.13469 -2.9273,8.80053 -0.18168,0.20052 -0.65499,-0.82073 -1.0518,-2.26943 z"
       id="path7" />
    <path
       style="fill:#ffffff;fill-opacity:1;stroke-width:0.453269"
       d="m 168.74126,167.64505 v -6.77622 l 5.31865,0.59379 c 2.92527,0.3266 5.67137,0.64584 6.10245,0.70944 0.56718,0.0836 -0.37099,1.32022 -3.3949,4.47463 -2.29826,2.39745 -5.04437,5.12751 -6.10243,6.06681 l -1.92377,1.7078 z"
       id="path8" />
    <path
       style="fill:#ffffff;fill-opacity:1;stroke-width:0.453269"
       d="m 172.36247,141.21435 c 0,-0.24316 3.5373,-3.11746 7.86068,-6.38734 8.52469,-6.44747 12.92084,-10.78962 15.104,-14.91849 1.39012,-2.62905 2.93824,-7.3537 3.54229,-10.81057 l 0.31724,-1.81555 1.02534,2.19407 c 1.45588,3.11535 1.7496,6.31846 0.93754,10.22375 -1.71164,8.23146 -7.61826,15.48162 -16.05055,19.70143 -3.52932,1.76619 -4.08787,1.90645 -8.26089,2.07452 -2.72539,0.10982 -4.47565,0.007 -4.47565,-0.26182 z"
       id="path10" />
    <path
       style="fill:#000000;fill-opacity:1;stroke-width:0.311622"
       d=""
       id="path11" />
    <path
       style="fill:#000000;fill-opacity:1;stroke-width:0.311622"
       d=""
       id="path12" />
    <path
       style="fill:#000000;fill-opacity:1;stroke-width:0.311622"
       d=""
       id="path16" />
    <path
       style="fill:#000000;fill-opacity:1;stroke-width:0.311622"
       d=""
       id="path18" />
  </g>
</svg>
