<?xml version="1.0" encoding="UTF-8" standalone="no"?>
<!-- Created with Inkscape (http://www.inkscape.org/) -->

<svg
   version="1.1"
   id="svg1"
   width="380.20535"
   height="674.05621"
   viewBox="0 0 380.20535 674.05621"
   sodipodi:docname="perfil02.svg"
   inkscape:version="1.4 (86a8ad7, 2024-10-11)"
   xmlns:inkscape="http://www.inkscape.org/namespaces/inkscape"
   xmlns:sodipodi="http://sodipodi.sourceforge.net/DTD/sodipodi-0.dtd"
   xmlns="http://www.w3.org/2000/svg"
   xmlns:svg="http://www.w3.org/2000/svg">
  <defs
     id="defs1" />
  <sodipodi:namedview
     id="namedview1"
     pagecolor="#ffffff"
     bordercolor="#000000"
     borderopacity="0.25"
     inkscape:showpageshadow="2"
     inkscape:pageopacity="0.0"
     inkscape:pagecheckerboard="0"
     inkscape:deskcolor="#d1d1d1"
     inkscape:zoom="0.4078125"
     inkscape:cx="811.64751"
     inkscape:cy="-128.73563"
     inkscape:window-width="1920"
     inkscape:window-height="1001"
     inkscape:window-x="-9"
     inkscape:window-y="-9"
     inkscape:window-maximized="1"
     inkscape:current-layer="g1" />
  <g
     inkscape:groupmode="layer"
     inkscape:label="Image"
     id="g1"
     transform="translate(-145.92,-1088.759)">
    <path
       style="fill:#000000"
       d="m 247.85687,1762.443 c -8.78611,-1.6211 -13.61687,-6.766 -13.61687,-14.5024 0,-6.2388 4.83776,-15.2295 18.73645,-34.8206 14.42169,-20.3283 18.05826,-26.6267 20.23585,-35.0475 3.14423,-12.1588 2.07975,-26.3657 -6.40124,-85.4325 -7.19255,-50.0933 -6.66074,-47.157 -8.45099,-46.6613 -0.85804,0.2376 -5.37448,0.9471 -10.03653,1.5766 -8.31354,1.1227 -8.46508,1.1901 -7.88441,3.5036 1.85494,7.3907 3.55165,23.4627 3.58343,33.944 0.0316,10.4292 -0.36527,13.6071 -2.96203,23.7172 -5.87204,22.8621 -8.77467,45.9802 -6.84029,54.4799 0.60081,2.64 2.57905,8.0944 4.39608,12.1208 3.49928,7.7543 4.22703,13.9948 2.06966,17.7473 -0.64129,1.1155 -5.48598,7.2997 -10.76598,13.7427 -5.28,6.443 -13.17115,16.7623 -17.53588,22.9318 -10.99733,15.5447 -13.14508,18.0393 -19.66207,22.8368 -10.66587,7.8518 -25.34324,10.1784 -38.52519,6.1069 -6.70003,-2.0694 -8.27686,-3.6678 -8.27686,-8.3899 0,-4.2013 5.06076,-13.4877 11.5847,-21.2577 9.70375,-11.557 16.94153,-23.9445 26.68935,-45.6787 l 3.44449,-7.68 -0.45927,-15.84 c -0.42669,-14.7162 -0.49988,-72.3474 -0.18595,-146.4 0.0637,-15.0376 8.33765,-27.5011 23.24668,-35.0181 11.18393,-5.6387 27.81857,-10.4854 45.93332,-13.383 l 9.93332,-1.5889 -32.38395,-38.845 c -25.12136,-30.1334 -57.54141,-70.463 -74.5904,-92.7881 -0.59427,-0.7782 1.50109,-3.9344 6.56376,-9.887 7.07062,-8.3134 7.51563,-8.6588 9.04005,-7.0169 0.88184,0.9499 9.26794,10.259 18.63578,20.687 9.36785,10.428 17.19518,18.96 17.39409,18.96 0.1989,0 -5.28304,-9.396 -12.1821,-20.88 -6.89906,-11.484 -12.77072,-21.312 -13.04813,-21.84 -0.27741,-0.528 9.88232,9.3674 22.57718,21.9898 l 23.08157,22.9498 31.04275,-9.7726 c 17.07352,-5.375 31.34493,-9.7624 31.71426,-9.7498 0.36932,0.013 2.72494,2.9388 5.23471,6.5028 7.90999,11.2326 44.63317,60.72 45.05854,60.72 0.22361,0 -2.02867,-3.78 -5.00506,-8.4 -2.9764,-4.62 -10.76574,-16.699 -17.30965,-26.8422 l -11.89801,-18.4422 8.5922,-17.1643 c 9.60818,-19.1939 12.72516,-22.9011 24.46605,-29.0991 l 6.29644,-3.3238 -6.15282,-8.1982 c -5.04267,-6.719 -7.22477,-8.7695 -12.09391,-11.3647 -10.14535,-5.4074 -18.01576,-15.0391 -22.03273,-26.9633 -1.19871,-3.5583 -3.54447,-7.7676 -5.68224,-10.1962 -10.26198,-11.6582 -12.51535,-37.279 -5.72787,-65.126 2.35021,-9.6422 6.17581,-17.676 11.68923,-24.5473 8.46895,-10.5547 23.5388,-19.6449 37.64122,-22.7052 l 7.0463,-1.5291 0.32305,-9.6892 c 0.27604,-8.2793 0.71461,-10.4866 3.01389,-15.1688 3.28719,-6.694 8.26175,-10.821 16.83886,-13.9698 17.92134,-6.5794 38.44387,-2.1071 52.56799,11.4556 7.01548,6.7366 10.46993,12.9102 15.21636,27.1938 8.37696,25.2091 21.76369,42.72 32.65854,42.72 2.17987,0 4.47461,-0.5112 5.09941,-1.136 2.5214,-2.5214 2.27143,0.4012 -0.26033,3.0438 -4.37239,4.5638 -9.93717,5.7177 -16.09167,3.3367 -2.81806,-1.0902 -1.90868,1.2468 2.01,5.1655 4.10316,4.1032 7.99983,5.3179 12.71806,3.9647 3.94477,-1.1313 4.42316,-0.6621 2.42861,2.382 -4.27922,6.5309 -13.49527,8.4179 -23.10418,4.7306 -1.44655,-0.5551 -1.60729,-0.298 -1.02993,1.6475 2.44745,8.2469 9.46022,13.3175 19.68042,14.2297 l 6.22298,0.5555 -2.86298,2.6511 c -6.39833,5.9247 -15.95789,6.9679 -24.39732,2.6624 -2.14811,-1.0959 -3.90566,-1.5345 -3.90566,-0.9748 0,2.1967 3.91012,8.5096 6.75156,10.9005 l 2.99575,2.5208 h -4.72108 c -2.5966,0 -6.84174,-0.6433 -9.43366,-1.4296 -2.59191,-0.7863 -4.95878,-1.4343 -5.2597,-1.44 -0.30092,-0.01 -1.06458,3.8761 -1.69703,8.6263 -0.63244,4.7502 -2.41506,13.4982 -3.96137,19.44 l -2.81147,10.8033 3.00524,4.32 c 7.20338,10.3547 12.11668,15.0713 19.68375,18.8957 5.91936,2.9917 8.52762,5.0595 12.80377,10.151 11.18525,13.3178 33.12528,61.8525 42.20023,93.3533 5.70897,19.8169 3.91831,30.6764 -6.97929,42.3259 -3.18846,3.4085 -8.33058,7.7609 -11.42695,9.6721 -4.20414,2.595 -5.62975,4.0292 -5.62975,5.6637 0,4.8749 -6.12975,38.2079 -9.24027,50.2477 -7.56945,29.2989 -14.0329,45.4759 -20.50626,51.3242 l -3.859,3.4864 H 478.07723 503.04 v 18.1556 18.1556 l -3.6,0.5618 c -19.91059,3.1071 -86.32468,10.2768 -95.76,10.3377 l -11.52,0.074 9.10561,0.8171 c 8.11296,0.7281 14.00349,0.2438 54.03435,-4.4425 33.24468,-3.8919 48.29555,-5.2597 57.87512,-5.2597 h 12.94638 l -0.26073,18.4381 -0.26073,18.438 -17.28,3.1382 c -9.504,1.726 -35.856,5.3531 -58.56,8.0601 -39.41113,4.699 -41.73635,4.8739 -51.36,3.8623 -14.41164,-1.5148 -15.73373,-1.1137 -2.88,0.8737 l 11.04,1.7069 37.44,-3.7336 c 20.592,-2.0534 38.628,-3.7358 40.08,-3.7386 l 2.64,-0.01 v 10.1101 c 0,7.2068 -0.34461,10.2401 -1.2,10.5627 -0.66,0.2488 -12.648,2.1685 -26.64,4.2659 -29.18513,4.3749 -25.97332,4.3031 15.84,-0.3541 16.368,-1.8231 32.028,-3.501 34.8,-3.7287 l 5.04,-0.4141 v 14.1944 c 0,12.6912 -0.17791,14.2465 -1.68,14.686 -0.924,0.2703 -21.336,4.6808 -45.36,9.8011 l -43.68,9.3095 -11.88133,-1.6151 c -6.53474,-0.8883 -12.03779,-1.4586 -12.22902,-1.2674 -0.19122,0.1913 5.05235,1.2996 11.65239,2.463 l 12.00006,2.1153 46.37345,-9.6243 c 25.50539,-5.2934 48.62262,-9.6243 51.37161,-9.6243 h 4.99818 l -0.26267,16.4788 -0.26267,16.4789 -52.32,10.8576 c -28.776,5.9717 -53.616,10.9154 -55.2,10.9858 -2.30312,0.1025 -33.37082,-7.8147 -98.0533,-24.9874 -2.88743,-0.7666 -3.19429,-0.5539 -7.3464,5.0931 -16.60094,22.5778 -47.45943,40.1799 -64.82343,36.9762 z M 432.24,1668.8042 c -0.66,-0.2663 -1.74,-0.2663 -2.4,0 -0.66,0.2663 -0.12,0.4842 1.2,0.4842 1.32,0 1.86,-0.2179 1.2,-0.4842 z m -50.4,-25.946 c -0.924,-0.2414 -2.436,-0.2414 -3.36,0 -0.924,0.2415 -0.168,0.4391 1.68,0.4391 1.848,0 2.604,-0.1976 1.68,-0.4391 z m 8.16,-42.2557 c -1.188,-0.2288 -3.132,-0.2288 -4.32,0 -1.188,0.2288 -0.216,0.416 2.16,0.416 2.376,0 3.348,-0.1872 2.16,-0.416 z m 5.0249,-467.8919 c -0.92909,-5.4992 -4.11598,-8.5506 -8.93035,-8.5506 -2.77468,0 -4.41235,0.6596 -6.28364,2.5309 -1.392,1.392 -2.52939,3.012 -2.52753,3.6 0.003,0.8976 17.08524,7.1801 18.09193,6.6538 0.18442,-0.096 0.0267,-2.0018 -0.35041,-4.2341 z"
       id="path1"
       sodipodi:nodetypes="cssssssssssssssssssscsssscssssssssscscsssscsscssssssscssssssssssssssscsssscsscsscssssssssscccccsccssscccsssscsccssssscssscssscsscccssssccsssssssssssssssscs" />
  </g>
</svg>
