<?xml version="1.0" encoding="UTF-8" standalone="no"?>
<!-- Created with Inkscape (http://www.inkscape.org/) -->

<svg
   version="1.1"
   id="svg1"
   width="573.8089"
   height="730.14728"
   viewBox="0 0 573.8089 730.14724"
   sodipodi:docname="perfil05.svg"
   inkscape:version="1.4 (86a8ad7, 2024-10-11)"
   xmlns:inkscape="http://www.inkscape.org/namespaces/inkscape"
   xmlns:sodipodi="http://sodipodi.sourceforge.net/DTD/sodipodi-0.dtd"
   xmlns="http://www.w3.org/2000/svg"
   xmlns:svg="http://www.w3.org/2000/svg">
  <defs
     id="defs1" />
  <sodipodi:namedview
     id="namedview1"
     pagecolor="#ffffff"
     bordercolor="#000000"
     borderopacity="0.25"
     inkscape:showpageshadow="2"
     inkscape:pageopacity="0.0"
     inkscape:pagecheckerboard="0"
     inkscape:deskcolor="#d1d1d1"
     showgrid="false"
     inkscape:zoom="0.4078125"
     inkscape:cx="380.07662"
     inkscape:cy="187.5862"
     inkscape:window-width="1920"
     inkscape:window-height="1001"
     inkscape:window-x="-9"
     inkscape:window-y="-9"
     inkscape:window-maximized="1"
     inkscape:current-layer="g1">
    <inkscape:page
       x="0"
       y="0"
       width="573.8089"
       height="730.14722"
       id="page2"
       margin="0"
       bleed="0" />
  </sodipodi:namedview>
  <g
     inkscape:groupmode="layer"
     inkscape:label="Image"
     id="g1"
     transform="translate(-1163.791,-962.18916)">
    <path
       style="display:inline;fill:#000000"
       d="m 1320.3179,1690.9638 c -0.292,-0.7611 -1.7332,-0.9913 -4.1643,-0.6652 -5.2165,0.6997 -8.5184,-0.3554 -9.7803,-3.1251 -0.677,-1.4858 -1.8775,-2.3735 -3.2098,-2.3735 -3.0451,0 -4.6832,-2.2593 -3.3901,-4.6755 1.4132,-2.6407 1.309,-3.0045 -0.8608,-3.0045 -1.0381,0 -3.4141,-0.728 -5.28,-1.6178 -5.2968,-2.5259 -4.6128,-4.9847 3.5674,-12.825 6.349,-6.0851 9.2354,-7.8384 32.88,-19.9726 14.256,-7.3161 30.456,-15.9256 36,-19.1324 12.3076,-7.1189 23.04,-15.3473 23.04,-17.6644 0,-1.8155 30.5464,-64.1842 42.4669,-86.7078 15.4522,-29.1966 27.6019,-53.9374 28.1862,-57.3966 l 0.6143,-3.6365 -9.4737,6.4413 c -9.2517,6.2903 -27.6855,15.7056 -41.1537,21.0197 -26.2723,10.3661 -50.7059,16.3592 -76.3008,18.7152 -14.8712,1.3688 -23.128,3.365 -27.5641,6.6638 -2.0103,1.4949 -9.6844,8.4428 -17.0536,15.4396 -17.7468,16.85 -19.3744,17.6212 -37.7078,17.8665 -13.4687,0.1803 -13.7812,0.2337 -21.6,3.695 -13.493,5.973 -16.2827,6.4407 -39.2661,6.5832 -19.1811,0.1189 -20.9278,-0.011 -22.8,-1.7 -1.1152,-1.0058 -2.0276,-2.5394 -2.0276,-3.408 0,-0.8686 -0.5127,-2.0919 -1.1393,-2.7185 -0.879,-0.879 -0.6597,-1.6497 0.96,-3.3739 1.1546,-1.229 2.0993,-2.6714 2.0993,-3.2053 0,-0.534 1.08,-1.9854 2.4,-3.2255 1.32,-1.2401 2.4,-2.9851 2.4,-3.8779 0,-2.0893 3.6,-6.6821 5.2377,-6.6821 0.6921,0 1.4733,-0.822 1.7361,-1.8268 0.3108,-1.1886 2.4996,-2.564 6.2654,-3.937 3.6487,-1.3304 5.9577,-2.7606 6.2477,-3.8698 0.307,-1.1737 1.6941,-1.9537 4.1666,-2.3429 2.0386,-0.3209 7.4026,-2.4958 11.92,-4.8333 4.5175,-2.3374 15.9027,-6.8799 25.3006,-10.0945 18.8222,-6.4382 30.4328,-11.4846 38.1928,-16.5999 2.8012,-1.8465 8.0091,-4.7862 11.5731,-6.5326 3.9051,-1.9135 6.48,-3.7749 6.48,-4.6843 0,-0.9457 6.1825,-5.0647 16.56,-11.033 9.108,-5.2382 22.824,-13.1365 30.48,-17.5519 19.1871,-11.0657 84.1167,-43.5211 94.08,-47.0264 7.4883,-2.6346 23.1461,-6.5443 28.7087,-7.1685 1.7855,-0.2004 0.5918,-1.1054 -5.2674,-3.9936 -19.0712,-9.4009 -30.1788,-11.4805 -58.8314,-11.0146 l -21.47,0.3491 -2.7132,-8.32 c -1.4923,-4.576 -3.8747,-10.624 -5.2941,-13.44 -6.4952,-12.8855 -18.8966,-29.2258 -29.0458,-38.2715 l -5.4468,-4.8546 -0.062,-11.4769 c -0.04,-7.4513 0.2966,-11.5143 0.96,-11.5833 0.5621,-0.058 2.1016,-0.013 3.4212,0.1001 l 2.3994,0.2063 -1.9194,-2.26 c -1.0556,-1.2431 -2.4414,-2.5955 -3.0794,-3.0055 -2.2246,-1.4293 -0.3436,-3.4619 2.4295,-2.6251 10.3633,3.127 39.4841,14.4977 65.7496,25.6731 l 17.099,7.2753 4.981,-4.7871 c 2.7396,-2.6328 6.8439,-6.2134 9.1208,-7.9569 6.0798,-4.6555 19.4394,-12.5139 21.2741,-12.5139 0.8731,0 3.5042,2.242 5.8468,4.9822 2.3426,2.7402 7.8989,7.8662 12.3474,11.3912 l 8.0881,6.409 3.6321,-2.5112 c 2.9457,-2.0367 4.4656,-4.3964 8.0431,-12.4874 4.8341,-10.9329 6.1317,-15.4638 4.4286,-15.4638 -1.2809,0 -1.4436,-3.065 -0.2318,-4.368 1.7772,-1.911 11.8008,-37.3431 16.4169,-58.032 2.6507,-11.88 5.7037,-24.258 6.7844,-27.5067 4.0273,-12.1063 12.591,-21.2469 26.7639,-28.5669 4.7886,-2.4732 8.7066,-4.8217 8.7066,-5.2187 0,-0.3971 -1.485,-1.259 -3.3001,-1.9153 -3.2678,-1.1817 -13.0199,-11.3096 -13.0199,-13.5216 0,-0.6097 -0.9196,-2.3523 -2.0435,-3.8725 -1.3861,-1.8748 -1.8543,-3.5174 -1.4555,-5.1064 0.6733,-2.6824 -0.4102,-3.8367 -7.2833,-7.7596 -6.8711,-3.9216 -7.0891,-4.9211 -3.1498,-14.4375 3.7641,-9.0932 3.9755,-10.1748 1.9888,-10.1748 -0.7609,0 -1.6924,-0.5001 -2.0702,-1.1112 -0.4705,-0.7614 -0.035,-0.9408 1.3834,-0.5699 1.6502,0.4315 2.0669,0.1214 2.0543,-1.5288 -0.026,-3.4283 -4.1146,-9.6552 -7.3471,-11.1901 -2.0881,-0.9915 -3.2167,-2.3371 -3.6232,-4.32 -1.402,-6.8376 -1.6709,-16.9156 -0.6133,-22.9887 0.6241,-3.5838 0.9537,-6.697 0.7325,-6.9182 -0.9342,-0.9342 -3.7379,13.3174 -4.2375,21.5392 -0.7117,11.712 -2.5538,11.4277 -2.9298,-0.4521 -0.2295,-7.2522 0.1134,-9.7431 2.1039,-15.2823 l 2.378,-6.6179 -2.2597,2.7902 c -2.745,3.3895 -5.1179,10.6364 -6.1878,18.8978 -0.7613,5.8786 -0.8021,5.6758 -0.9185,-4.5625 -0.1256,-11.0617 0.6908,-15.068 5.4951,-26.9655 1.1193,-2.772 1.8466,-5.04 1.6162,-5.04 -1.274,0 -7.5213,13.2419 -9.1108,19.3114 -1.0211,3.8987 -1.8803,6.195 -1.9093,5.1028 -0.083,-3.1295 2.7764,-11.8861 5.9087,-18.0924 5.1095,-10.1241 17.7697,-27.7092 26.4064,-36.6788 11.769,-12.22267 20.3134,-16.19108 37.3087,-17.32801 l 8.7168,-0.58312 1.0934,-4.08823 c 0.6987,-2.6123 2.1567,-4.90329 4.0386,-6.34593 1.6198,-1.24174 4.4152,-3.46761 6.212,-4.94638 8.6752,-7.13981 24.5582,-10.18188 34.1025,-6.53165 2.904,1.11065 6.36,2.02618 7.68,2.03454 1.6395,0.0104 2.003,0.26698 1.1471,0.80985 -0.8679,0.55047 0.057,1.29484 3.0092,2.4224 4.951,1.89078 14.3681,11.22202 16.5179,16.36726 1.7982,4.30364 1.7983,10.44263 3e-4,13.91959 -1.6826,3.25378 -6.1589,7.15888 -11.089,9.67408 -3.7734,1.9251 -5.7919,6.0902 -3.8786,8.0035 0.5572,0.5572 1.0126,1.4667 1.0119,2.0211 -6e-4,0.5544 -1.0806,-0.2472 -2.4,-1.7813 -1.3193,-1.5341 -2.3988,-2.3654 -2.3988,-1.8474 0,1.2636 4.0721,5.0304 5.28,4.8843 1.0553,-0.1276 5.9954,9.2309 9.2444,17.5124 2.633,6.7113 2.8125,18.2218 0.4091,26.2445 -1.3726,4.582 -1.4868,6.3673 -0.6262,9.7851 2.7016,10.7291 -0.5786,20.2672 -10.0511,29.2258 -4.7547,4.4969 -5.1759,5.2031 -3.9417,6.6097 0.76,0.8662 2.3216,3.4436 3.4702,5.7275 2.4757,4.9226 6.5793,7.0149 14.1735,7.2263 6.0904,0.1696 6.869,1.5811 0.872,1.5811 -7.4989,0 -13.9928,-2.7796 -19.6615,-8.4157 -2.8332,-2.8169 -5.3083,-4.9647 -5.5001,-4.7729 -0.1919,0.1919 1.0173,4.7766 2.6869,10.1884 2.4625,7.9814 3.5699,10.2199 5.864,11.8535 2.2909,1.6312 3.167,1.8023 4.6113,0.9003 2.3823,-1.4878 4.425,-1.4057 5.3615,0.2154 0.9202,1.5929 10.7374,7.491 27.4876,16.5143 14.8816,8.0166 23.5781,14.4699 29.7343,22.0645 7.5106,9.2655 9.9955,14.6009 14.9946,32.196 4.7036,16.5554 12.5607,40.2439 16.9761,51.1817 1.2623,3.127 2.2951,6.1838 2.2951,6.7927 0,0.609 -2.5487,2.3524 -5.6638,3.8742 l -5.6638,2.7669 0.07,13.9604 c 0.079,15.8037 -1.3683,23.6721 -6.0485,32.882 -1.5695,3.0887 -2.8537,6.6198 -2.8537,7.8469 0,1.2271 2.6153,10.5685 5.8117,20.7585 3.1964,10.19 6.4843,21.7798 7.3064,25.7551 1.425,6.8906 1.4114,7.2889 -0.2917,8.5346 -1.5892,1.1624 -1.7957,2.8122 -1.8708,14.9449 -0.1155,18.6845 -2.8446,29.331 -10.7293,41.8569 -6.3076,10.0206 -17.3114,19.636 -29.5403,25.8133 -11.8898,6.006 -36.2978,12.3917 -56.0238,14.657 -15.3405,1.7616 -58.0588,0.684 -71.807,-1.8114 -5.9096,-1.0727 -13.7361,-2.2451 -17.3922,-2.6054 l -6.6475,-0.655 -0.6599,3.5174 c -2.0923,11.1529 -10.9966,31.6467 -20.2583,46.6255 -9.7073,15.6995 -19.054,28.1651 -51.886,69.2002 -7.4298,9.2861 -15.8188,20.6508 -18.6423,25.2549 -2.8234,4.604 -5.8693,8.7648 -6.7687,9.2461 -1.2216,0.6538 -1.9299,3.2164 -2.8002,10.1302 -0.6407,5.0903 -1.8002,11.3943 -2.5767,14.009 -2.8399,9.5629 -11.8769,16.0737 -25.3034,18.2299 -6.2566,1.0048 -8.4313,1.9516 -16.5975,7.2258 -11.7537,7.5913 -16.7345,10.1186 -24.9107,12.6397 -13.3408,4.1136 -44.3743,6.4499 -45.5339,3.428 z M 1498.97,1384.9814 c 0.4895,-0.1621 -0.6697,-1.2586 -2.5759,-2.4367 l -3.4658,-2.142 -6.1737,2.7993 c -3.3956,1.5396 -6.4312,3.2159 -6.7459,3.7251 -0.4766,0.7712 15.8008,-0.8991 18.9613,-1.9457 z m 64.9311,-53.4614 c -0.5909,-4.488 -1.4545,-12.2941 -1.9189,-17.347 -0.6404,-6.9667 -1.6108,-10.9688 -4.015,-16.56 l -3.1705,-7.373 h -8.0112 -8.0112 l -2.3258,5.259 c -1.2791,2.8925 -6.8548,11.9654 -12.3902,20.1621 l -10.0645,14.903 2.1774,1.4267 c 1.9223,1.2595 2.9582,1.2612 8.8431,0.015 7.956,-1.6854 17.0267,-1.8563 19.9288,-0.3754 1.1533,0.5885 4.2569,3.1401 6.8969,5.6703 2.64,2.5302 6.528,5.7567 8.64,7.17 l 3.84,2.5697 0.3278,-3.68 c 0.1803,-2.024 -0.1557,-7.352 -0.7467,-11.84 z m 72,-215.76 c -2.0559,-3.5737 -4.7618,-6.4193 -5.4498,-5.7313 -0.396,0.396 0.7392,2.2256 2.5226,4.0657 3.6167,3.7314 4.3584,4.1535 2.9272,1.6656 z m -9.0053,-8.1 c -0.3065,-0.7658 -0.5339,-0.5383 -0.58,0.58 -0.042,1.012 0.1852,1.579 0.5042,1.26 0.319,-0.319 0.3531,-1.147 0.076,-1.84 z m 12.8354,-8.22 c 6.0776,-6.8354 8.2408,-12.6036 7.6505,-20.4 -0.1143,-1.5103 -0.6768,-0.3572 -1.5172,3.1103 -1.6428,6.7778 -4.4246,12.4178 -8.7645,17.7697 -4.5138,5.5663 -2.4022,5.1811 2.6312,-0.48 z m -2.5291,-1.7736 c 3.7609,-4.9255 6.7263,-12.1142 7.6836,-18.6264 0.7773,-5.2875 -0.7972,-3.2304 -1.8027,2.3553 -1.3771,7.6496 -6.6807,14.6169 -12.9489,17.0109 -2.381,0.9093 -2.3986,0.978 -0.5906,2.3055 2.9117,2.138 4.0449,1.6874 7.6586,-3.0453 z m -5.5533,-1.2683 c 3.5325,-2.1539 7.4755,-7.0645 8.9309,-11.1224 0.96,-2.6763 0.9312,-2.7426 -0.4145,-0.9557 -5.1508,6.8393 -8.0361,10.0874 -10.5517,11.8788 -3.5648,2.5385 -2.0449,2.6874 2.0353,0.1993 z m 12.2938,-24.6714 c 0.8633,-3.4394 -0.139,-4.1176 -1.3557,-0.9173 -1.2035,3.1654 -1.2137,3.4306 -0.131,3.4306 0.4708,0 1.1398,-1.131 1.4867,-2.5133 z m 4.8833,-19.0187 c 0.3346,-4.6613 0.2025,-6.1864 -0.4218,-4.868 -0.5,1.056 -0.9395,3.2299 -0.9766,4.8308 -0.037,1.6009 -0.6504,5.158 -1.3629,7.9046 -0.7124,2.7466 -1.0502,5.239 -0.7506,5.5386 1.0242,1.0242 3.024,-6.6098 3.5119,-13.406 z m -4.6701,-12.308 c -0.2663,-0.66 -0.4842,-0.12 -0.4842,1.2 0,1.32 0.2179,1.86 0.4842,1.2 0.2663,-0.66 0.2663,-1.74 0,-2.4 z m 1.3441,-3.3232 c -1.1226,-4.5011 -5.0021,-12.1381 -6.6986,-13.1866 -0.4708,-0.2909 0.4142,1.8162 1.9667,4.6825 1.9907,3.6755 2.6664,6.0096 2.2926,7.9194 -0.4175,2.1329 -0.3475,2.3002 0.3299,0.7879 0.7434,-1.6598 0.9562,-1.4261 1.57,1.7248 0.3905,2.0046 0.9296,3.4251 1.198,3.1567 0.2684,-0.2684 -0.028,-2.5565 -0.6586,-5.0847 z M 1634.88,1009.92 c 0,-0.528 -0.4065,-0.96 -0.9033,-0.96 -0.4969,0 -1.1704,0.432 -1.4967,0.96 -0.3263,0.528 0.08,0.96 0.9033,0.96 0.8232,0 1.4967,-0.432 1.4967,-0.96 z m 13.8054,-7.3435 c 1.5072,-1.5051 3.1215,-3.73662 3.5875,-4.959 1.8996,-4.98379 0.2364,-13.4223 -3.2087,-16.27921 -1.2966,-1.07519 -1.4152,-0.7067 -0.9892,3.07241 0.7336,6.50893 -2.287,16.4573 -6.1785,20.3488 -1.7471,1.7471 -3.1765,3.4157 -3.1765,3.708 0,1.0801 7.3147,-3.2439 9.9654,-5.891 z m -107.8854,-4.35933 5.28,-4.89569 -4.32,2.90752 c -4.5367,3.05339 -8.5884,7.0016 -7.1088,6.9274 0.4778,-0.024 3.2448,-2.2466 6.1488,-4.93923 z m 102.1462,-3.95268 c -0.5429,-1.71059 -0.717,-1.75471 -1.4879,-0.37715 -0.4802,0.85805 -0.5771,2.73958 -0.2152,4.18117 l 0.6578,2.62109 0.8301,-2.24394 c 0.4565,-1.23416 0.5534,-3.11569 0.2152,-4.18117 z m -74.8689,-5.45936 6.8027,-0.87235 -7.2,0.34886 c -6.6915,0.32423 -17.5146,3.36805 -18.6799,5.25341 -0.262,0.42391 2.3926,-0.27062 5.8991,-1.54341 3.5065,-1.27279 9.4367,-2.70672 13.1781,-3.18651 z m 73.1147,1.18687 c -0.9751,-0.97508 -2.7406,1.43668 -1.9675,2.68763 0.5293,0.85645 0.9647,0.73184 1.6363,-0.46835 0.5034,-0.89941 0.6524,-1.89808 0.3312,-2.21928 z m 6.1533,-3.38283 c 0.02,-4.8969 -2.0554,-9.53766 -5.1806,-11.58539 l -2.5772,-1.68867 1.9662,3.8542 c 1.0815,2.11981 1.9663,5.02874 1.9663,6.46429 0,1.43554 0.5172,4.04039 1.1493,5.78854 1.3883,3.83906 2.6544,2.49863 2.676,-2.83297 z M 1583.8896,981.12 c 0.072,-1.28 -0.022,-1.28 -0.8496,0 -0.5118,0.792 -0.8942,2.52 -0.8496,3.84 l 0.081,2.4 0.7686,-2.4 c 0.4227,-1.32 0.8051,-3.048 0.8496,-3.84 z m 55.3104,-9.6 c -0.3263,-0.528 -1.1078,-0.95338 -1.7367,-0.9453 -0.6869,0.009 -0.5685,0.38614 0.2967,0.9453 1.8443,1.19186 2.1766,1.19186 1.44,0 z m -7.68,-2.88 c -0.3263,-0.528 -1.1078,-0.95338 -1.7367,-0.9453 -0.6869,0.009 -0.5685,0.38614 0.2967,0.9453 1.8443,1.19186 2.1766,1.19186 1.44,0 z m -8.5311,-3.99026 c -0.9961,-0.57854 -4.6681,-1.20044 -8.16,-1.38201 l -6.3489,-0.33013 5.76,1.28811 c 3.168,0.70846 6.84,1.33037 8.16,1.38201 2.1908,0.0857 2.2422,0.002 0.5889,-0.95798 z M 1500.5558,1070.8 c 0.046,-1.1183 0.2735,-1.3458 0.58,-0.58 0.2773,0.693 0.2432,1.521 -0.076,1.84 -0.319,0.319 -0.5459,-0.248 -0.5042,-1.26 z M 1637.58,967.02421 c 0.693,-0.27732 1.521,-0.24321 1.84,0.0758 0.319,0.319 -0.248,0.54589 -1.26,0.50421 -1.1183,-0.0461 -1.3458,-0.27354 -0.58,-0.58 z"
       id="path2"
       sodipodi:nodetypes="ssssssssssssscssssssssssssssssssssssssssssssscssscccccsssscssssscssssssssssssssssssssssssscsssssssssscssssssssssssssssssssssssssssssssssscsssssssssssscsssssssssssssscsssssscccsscscssscssssssssssssssssssssssssssssssssssssssssssssssssssssssssssssssscsssssscssscsssssssssscssssssscsssssssssssscsssssssssssss"
       sodipodi:insensitive="true" />
  </g>
</svg>
