<?xml version="1.0" encoding="UTF-8" standalone="no"?>
<!-- Created with Inkscape (http://www.inkscape.org/) -->

<svg
   version="1.1"
   id="svg1"
   width="471.98306"
   height="584.23187"
   viewBox="0 0 471.98306 584.23187"
   sodipodi:docname="perfil01.svg"
   inkscape:version="1.4 (86a8ad7, 2024-10-11)"
   xmlns:inkscape="http://www.inkscape.org/namespaces/inkscape"
   xmlns:sodipodi="http://sodipodi.sourceforge.net/DTD/sodipodi-0.dtd"
   xmlns="http://www.w3.org/2000/svg"
   xmlns:svg="http://www.w3.org/2000/svg">
  <sodipodi:namedview
     id="namedview1"
     pagecolor="#ffffff"
     bordercolor="#000000"
     borderopacity="0.25"
     inkscape:showpageshadow="2"
     inkscape:pageopacity="0.0"
     inkscape:pagecheckerboard="0"
     inkscape:deskcolor="#d1d1d1"
     inkscape:zoom="0.4078125"
     inkscape:cx="831.26437"
     inkscape:cy="857.01149"
     inkscape:window-width="1902"
     inkscape:window-height="983"
     inkscape:window-x="50"
     inkscape:window-y="16"
     inkscape:window-maximized="0"
     inkscape:current-layer="svg1" />
  <defs
     id="defs1" />
  <g
     id="g1"
     transform="translate(-128.64541,-161.29651)" />
  <path
     style="fill:#000000"
     d="m 129.11459,583.34922 c -5.57452,-1.84443 -8.21932,-3.36104 -12,-6.88119 l -3.36,-3.12846 -15.36,-1.08764 c -29.7084,-2.10366 -42.79041,-7.27956 -48.97501,-19.37698 -5.22894,-10.22811 -7.63059,-29.57038 -6.66664,-53.69146 0.56164,-14.05388 2.51796,-35.22007 3.87478,-41.92267 l 0.61594,-3.04267 -3.7883,0.50812 C 33.2033,456.10136 29.20659,448.38948 20.71148,410.84066 14.93938,385.32765 13.00957,371.26769 10.12537,333.71345 9.3603998,323.75293 8.6040298,315.51194 8.4445498,315.40016 c -0.15948,-0.11179 -1.88104,-1.15963 -3.8257,-2.32854 -3.21687,-1.93363 -3.59713,-2.61662 -4.21642997,-7.57328 C -1.0484202,293.8862 1.5781798,268.55878 5.8021598,253.43032 8.7330398,242.93321 12.42467,236.75121 22.7362,225.07257 c 5.05821,-5.72882 10.16717,-12.51062 11.35325,-15.07065 2.85378,-6.1596 4.88209,-8.25957 8.66276,-8.96883 4.03826,-0.75758 5.43599,-2.31284 20.5,-22.81042 8.25197,-11.22845 12.58238,-17.95063 12.58238,-19.53188 0,-3.77301 -2.79755,-7.58142 -6.89802,-9.39055 -12.02188,-5.30404 -17.23249,-34.08566 -11.77993,-65.068246 1.82409,-10.36482 1.73771,-13.80728 -0.46839,-18.66639 -1.37931,-3.03805 -3.07152,-4.71649 -6.93892,-6.88247 -8.09076,-4.53132 -9.48935,-5.82842 -11.92517,-11.05974 -4.27367,-9.17842 -2.48712,-21.15711 4.1792,-28.0212 4.79197,-4.93414 13.29826,-8.54774 30.36907,-12.9012603 C 90.1863,2.1579237 105.29764,-0.02175634 118.8276,1.6366319e-4 133.03152,0.02316366 140.71644,1.8083337 151.67459,7.6302937 c 5.016,2.6649503 18.80358,9.6012503 30.63906,15.4139803 11.83549,5.81274 23.36998,12.0853 25.63221,13.93902 4.55533,3.73275 9.65571,12.96606 10.5969,19.18376 0.33107,2.18708 1.69537,5.046 3.1956,6.69644 7.05499,7.76135 12.62539,19.29023 13.9233,28.81666 l 0.6517,4.78334 -1.84576,-2.89058 c -1.95129,-3.05586 -10.82152,-12.28091 -11.32471,-11.77772 -0.16276,0.16276 0.56193,3.3137 1.61041,7.00211 2.70563,9.518 2.19923,25.613486 -1.0362,32.934256 l -2.25751,5.10808 -2.05538,-4.08237 c -1.13046,-2.2453 -2.46809,-4.21657 -2.9725,-4.38059 -0.50442,-0.16403 -1.66998,2.83041 -2.59013,6.65429 -0.92016,3.82389 -3.83971,11.48852 -6.48789,17.03252 -2.64818,5.544 -6.14149,14.616 -7.76292,20.16 -3.95725,13.53063 -6.68335,18.2764 -15.75616,27.42931 -12.38068,12.48998 -25.61244,17.85342 -36.51452,14.80103 -2.38731,-0.6684 -4.53977,-1.01607 -4.78325,-0.77259 -0.24348,0.24348 3.434,3.54677 8.17218,7.34064 9.29541,7.44284 10.50813,9.21513 15.80702,23.10058 8.41122,22.04115 14.48793,49.36945 15.92563,71.62103 1.11166,17.20529 3.33621,27.82128 7.69458,36.72 l 2.93865,6 h 36.74789 c 33.76699,0 38.33714,-0.20047 56.33984,-2.47135 25.15538,-3.17313 34.37047,-2.95147 43.11196,1.03703 3.432,1.56593 9.71392,5.45995 13.95983,8.65339 l 7.71982,5.80624 56.12018,-7.42509 c 30.86609,-4.08381 56.85738,-7.4465 57.7584,-7.47266 1.21462,-0.0353 2.24786,1.88222 3.99579,7.4154 4.457,14.10891 4.56188,13.41499 -2.92924,19.38118 -21.78728,17.35217 -39.08891,36.96016 -52.57098,59.57885 -5.80087,9.73204 -6.03841,10.38684 -6.4695,17.83351 -0.57321,9.90196 -3.67423,16.65854 -13.58875,29.60754 -4.01911,5.24922 -7.20542,9.64609 -7.0807,9.77081 0.12473,0.12473 3.24592,-0.40809 6.93597,-1.18405 12.99589,-2.73282 35.63928,-6.09717 47.17496,-7.00925 12.7125,-1.00512 22.09186,-0.18261 25.82721,2.26489 7.04067,4.61323 7.83829,17.62446 1.8155,29.61556 -3.57508,7.11784 -7.31221,11.35416 -13.0537,14.79735 -7.44153,4.46271 -14.53541,5.94212 -33.44829,6.97556 -19.11652,1.04457 -31.04808,2.57608 -54.0065,6.93218 -14.90702,2.82844 -16.08,3.20256 -16.08,5.1287 0,1.14274 -0.44864,3.36468 -0.99699,4.93766 -0.94087,2.69899 -1.95394,3.16618 -18,8.30097 -38.38378,12.28294 -47.82954,13.01407 -107.72301,8.33806 -36.60034,-2.85746 -33.95134,-3.09565 -52.24213,4.6973 -8.5584,3.64638 -17.90908,7.3302 -20.7793,8.18628 -7.33286,2.18711 -17.80962,2.7411 -22.49857,1.18967 z"
     id="path1"
     sodipodi:nodetypes="sscsssscsssssssssssssssssssssssssscsssscsssssssssssscsssscssssssssssssssssssssss" />
</svg>
