<?xml version="1.0" encoding="UTF-8" standalone="no"?>
<!-- Created with Inkscape (http://www.inkscape.org/) -->

<svg
   version="1.1"
   id="svg1"
   width="731.76154"
   height="289.04114"
   viewBox="0 0 731.76154 289.04112"
   sodipodi:docname="perfil04.svg"
   inkscape:export-filename="9389267.svg"
   inkscape:export-xdpi="96"
   inkscape:export-ydpi="96"
   inkscape:version="1.4 (86a8ad7, 2024-10-11)"
   xmlns:inkscape="http://www.inkscape.org/namespaces/inkscape"
   xmlns:sodipodi="http://sodipodi.sourceforge.net/DTD/sodipodi-0.dtd"
   xmlns="http://www.w3.org/2000/svg"
   xmlns:svg="http://www.w3.org/2000/svg">
  <defs
     id="defs1" />
  <sodipodi:namedview
     id="namedview1"
     pagecolor="#ffffff"
     bordercolor="#000000"
     borderopacity="0.25"
     inkscape:showpageshadow="2"
     inkscape:pageopacity="0.0"
     inkscape:pagecheckerboard="0"
     inkscape:deskcolor="#d1d1d1"
     inkscape:zoom="0.4078125"
     inkscape:cx="961.22604"
     inkscape:cy="959.99999"
     inkscape:window-width="1920"
     inkscape:window-height="1001"
     inkscape:window-x="-9"
     inkscape:window-y="-9"
     inkscape:window-maximized="1"
     inkscape:current-layer="g1">
    <inkscape:page
       x="0"
       y="0"
       width="731.76154"
       height="289.04111"
       id="page2"
       margin="0"
       bleed="0" />
  </sodipodi:namedview>
  <g
     inkscape:groupmode="layer"
     inkscape:label="Image"
     id="g1"
     transform="translate(-583.85085,-190.00095)">
    <path
       style="display:inline;fill:#000000"
       d="m 809.76,477.4673 c -2.112,-0.81863 -6.62179,-1.87279 -10.02175,-2.34258 -3.39997,-0.46978 -8.58397,-1.54618 -11.52,-2.39199 -9.47959,-2.73087 -65.04957,-25.20233 -76.61241,-30.98062 -3.03921,-1.51879 -9.60228,-3.91988 -14.5846,-5.33575 -11.27351,-3.20371 -19.45779,-7.49613 -23.12774,-12.12981 -1.55047,-1.95764 -4.1228,-4.09938 -5.71627,-4.75941 -1.67513,-0.69387 -2.89723,-1.91469 -2.89723,-2.89422 0,-0.99968 -1.40881,-2.36268 -3.43679,-3.32502 -2.93339,-1.39198 -4.49632,-1.48928 -10.67036,-0.66427 -8.90496,1.18992 -11.66368,2.82467 -32.02555,18.97754 -14.6394,11.61329 -15.18064,12.16913 -16.26958,16.70833 -1.38503,5.77347 -3.18562,7.57959 -5.87929,5.89737 -1.57472,-0.98343 -2.29555,-0.85519 -4.37151,0.77776 -7.42009,5.83664 -11.59242,-2.70395 -6.59278,-13.49515 1.29478,-2.79465 2.63091,-7.48155 2.96918,-10.41533 1.45329,-12.60421 4.45723,-18.32435 12.86381,-24.49534 3.75179,-2.75407 6.52262,-6.3107 12.60853,-16.18429 8.78485,-14.25228 13.06876,-19.27686 18.64434,-21.86787 8.02585,-3.72968 13.09385,-1.87822 23.3926,8.54586 9.46979,9.58504 11.58219,10.25248 27.12335,8.57007 14.54926,-1.57503 31.08246,-1.30831 41.52309,0.66985 21.65644,4.10321 42.83521,13.42519 59.32052,26.11035 l 5.81621,4.47547 -0.55982,-3.73912 c -0.3079,-2.05652 -0.82063,-6.33113 -1.13941,-9.49913 -0.31878,-3.168 -1.60732,-13.32 -2.86341,-22.56 -6.19604,-45.57889 -6.98175,-68.13728 -2.42362,-69.58398 1.46275,-0.46425 1.57004,-1.19615 0.84918,-5.79298 -1.2513,-7.97943 -4.20204,-14.84873 -8.55138,-19.90752 -2.15839,-2.51046 -9.68813,-9.31446 -16.73274,-15.12 -10.50337,-8.65592 -13.38303,-10.5631 -16.00148,-10.59766 -1.7562,-0.0232 -4.92109,-0.65922 -7.03309,-1.41345 -2.112,-0.75422 -5.7006,-1.652 -7.97466,-1.99506 -2.85695,-0.43099 -4.59688,-1.32919 -5.63041,-2.90655 -1.3708,-2.0921 -1.34907,-2.50334 0.26015,-4.9228 0.96574,-1.452 1.64971,-3.31664 1.51994,-4.14364 -0.12977,-0.827 0.63206,-2.28918 1.69297,-3.24929 1.56384,-1.41526 2.70522,-1.60383 6.03047,-0.99632 7.14189,1.3048 11.63562,0.97523 16.75951,-1.22915 5.85373,-2.51837 13.2075,-2.79182 18.26385,-0.67914 1.92508,0.80435 5.77487,3.61379 8.55508,6.24319 6.14025,5.8072 7.61204,6.41665 21.0031,8.69728 18.98224,3.23284 26.88,9.50868 26.88,21.35977 0,5.09106 -0.43579,6.56094 -3.121,10.52691 -5.54398,8.18826 -6.35942,10.36687 -6.14152,16.40838 0.15963,4.42623 0.71984,6.27095 2.57329,8.47365 1.30308,1.54862 2.36923,3.47617 2.36923,4.28343 0,0.80727 1.01645,2.67575 2.25879,4.15218 3.09151,3.67406 14.4834,29.78788 17.42924,39.95333 3.58566,12.37339 4.69842,23.94102 3.35981,34.92665 -2.45807,20.17262 -2.46855,18.39807 0.1052,17.81486 1.25783,-0.28502 7.19036,-1.60028 13.18341,-2.9228 16.33308,-3.60432 29.6042,-8.37131 47.13794,-16.93195 23.20728,-11.33067 27.74185,-12.71951 41.96865,-12.85403 8.19716,-0.0775 12.14414,-0.49315 13.22843,-1.39303 1.17931,-0.97874 2.09193,-1.03354 3.85259,-0.23133 1.26896,0.57818 3.79325,0.81008 5.60952,0.51534 2.03585,-0.33038 3.56977,-0.10316 3.99968,0.59244 0.50335,0.81445 1.23294,0.64358 2.62259,-0.61419 1.35192,-1.22363 3.58661,-1.77747 7.50418,-1.85984 6.25867,-0.13159 6.75625,-0.40867 20.61997,-11.4823 15.184,-12.12818 33.3304,-28.59484 42.6285,-38.68254 4.9656,-5.38735 11.7625,-11.59271 15.1041,-13.78968 4.0709,-2.67647 5.6849,-4.24268 4.8915,-4.74664 -0.7281,-0.46249 -0.075,-0.7713 1.6959,-0.8019 2.6836,-0.0464 2.5462,-0.21133 -2.0148,-2.41916 -5.7123,-2.76508 -12.2279,-8.96538 -14.9328,-14.21019 -1.8387,-3.56521 -1.9657,-3.63296 -3.7616,-2.00766 -1.0223,0.92513 -3.0449,4.0975 -4.4947,7.04971 -2.4458,4.98025 -2.6344,6.21861 -2.613,17.15769 0.013,6.48452 -0.2809,11.02052 -0.6525,10.08 -0.3716,-0.94052 -0.7192,-4.08603 -0.7723,-6.99003 -0.076,-4.15828 -0.3097,-4.91396 -1.0992,-3.55703 -0.5515,0.94764 -0.8623,5.16065 -0.6909,9.36226 0.2223,5.44492 -0.017,7.63863 -0.8315,7.63702 -1.4416,-0.003 -2.332,-1.43519 -3.2316,-5.19845 l -0.7086,-2.9638 -0.1129,2.88 c -0.062,1.584 -0.4304,3.312 -0.8183,3.84 -1.2176,1.65734 -4.1811,1.63276 -6.0407,-0.0501 -1.2234,-1.10718 -2.5856,-1.41709 -4.3177,-0.98234 -3.7084,0.93073 -5.0113,-0.76443 -5.7084,-7.42697 -1.2023,-11.49057 2.4811,-24.91637 9.1438,-33.32879 3.5864,-4.52814 13.2359,-11.11035 18.2784,-12.46814 3.5686,-0.96093 3.6917,-1.12718 3.0295,-4.09264 -0.3796,-1.70006 -0.6537,-9.35502 -0.6091,-17.01102 0.071,-12.22047 0.3808,-14.82766 2.5362,-21.35419 3.1129,-9.42598 7.1834,-15.76318 14.2082,-22.1203 10.2213,-9.2497 25.8685,-15.08551 40.4481,-15.08551 4.8545,0 7.5264,-0.3766 7.5264,-1.06083 0,-0.6556 1.4418,-0.92334 3.7742,-0.70091 3.027,0.28867 3.5676,0.11098 2.7306,-0.89754 -0.5824,-0.70173 1.8863,-0.1312 5.5858,1.29093 3.6462,1.40162 7.7094,2.52122 9.0294,2.48801 2.2143,-0.0557 6.7339,1.50579 10.787,3.72685 0.9168,0.50242 2.4913,0.91349 3.4989,0.91349 1.0075,0 4.7007,0.88609 8.207,1.96909 14.9226,4.60911 29.6637,25.91049 24.547,35.47117 -1.0492,1.96043 -0.2478,4.58042 2.6304,8.59882 0.9293,1.29749 1.1866,2.0508 0.5717,1.67402 -0.6149,-0.37679 -1.3368,-0.14237 -1.6042,0.52092 -0.2674,0.66329 -0.5203,0.0849 -0.562,-1.28523 -0.042,-1.37017 -0.8774,-3.21664 -1.8571,-4.10328 -1.7158,-1.55277 -1.765,-1.44225 -1.3378,3.00429 0.5129,5.33766 -0.2685,8.37171 -4.8804,18.9502 -4.7193,10.8249 -5.1215,13.32074 -2.3606,14.65042 l 2.2001,1.05963 -2.2247,0.065 c -3.2813,0.0958 -1.9599,3.3294 3.7658,9.21516 6.9854,7.18059 6.2972,10.79422 -2.7411,14.39352 -4.0782,1.62404 -4.08,1.627 -4.08,6.68298 0,3.32504 -0.4934,5.46771 -1.44,6.25331 -0.792,0.6573 -1.44,2.37994 -1.44,3.82808 0,1.44815 -0.9322,3.81807 -2.0715,5.26651 -1.1394,1.44843 -2.9754,4.41281 -4.08,6.5875 -2.9916,5.88943 -7.0707,7.83791 -16.4085,7.83791 -4.224,0 -11.4758,-0.82661 -16.1151,-1.83691 -10.4243,-2.27012 -11.3776,-1.6983 -8.069,4.84022 2.9451,5.82011 7.781,19.44318 10.3186,29.06809 2.4902,9.44495 5.7051,29.07234 5.7053,34.83194 1e-4,2.55307 0.5199,4.8358 1.2002,5.271 3.4855,2.22972 30.687,-0.62513 43.4154,-4.55655 9.7637,-3.01569 10.7045,-3.85182 11.3478,-10.08455 0.649,-6.28836 3.6065,-12.84005 6.6504,-14.73277 1.2025,-0.74774 4.1134,-1.85163 6.4685,-2.45307 4.0401,-1.03172 4.4113,-1.41621 6.5655,-6.80047 2.8886,-7.22002 4.1773,-8.62491 9.6653,-10.53724 4.0751,-1.41999 5.8927,-3.34501 21.7271,-23.01144 9.504,-11.804 17.8563,-21.70887 18.5606,-22.01082 0.7043,-0.30195 4.1603,-0.79267 7.68,-1.09048 5.098,-0.43137 7.0827,-0.18323 9.7594,1.2202 3.0688,1.60901 3.8592,1.64751 9.12,0.44421 7.3182,-1.6739 17.4906,-0.97311 24.5894,1.69401 6.1314,2.30362 8.0315,4.08977 8.8201,8.29096 0.4882,2.60105 -0.2558,3.90953 -6.3482,11.16512 -42.1765,50.22838 -50.5813,60.42543 -50.5813,61.36739 0,0.602 -0.972,2.6443 -2.16,4.53846 -1.188,1.89415 -3.024,6.04438 -4.08,9.22273 l -1.92,5.77881 -15.922,10.20397 c -17.3296,11.10613 -18.6802,11.71464 -30.6861,13.82597 -8.8025,1.54799 -63.3106,6.65875 -82.1771,7.70506 -14.3966,0.79841 -18.5185,0.14407 -23.6623,-3.75639 -2.2179,-1.68175 -5.8453,-3.59456 -8.061,-4.25069 -4.4237,-1.31 -7.507,-4.52645 -8.4486,-8.81339 -0.3998,-1.82024 -1.2981,-2.87925 -2.6083,-3.07491 -1.0992,-0.16415 -2.4746,-1.16246 -3.0566,-2.21846 -1.5964,-2.89702 -1.5944,-2.89542 -2.3102,-1.83636 -1.2936,1.91393 -13.9089,12.12003 -19.0312,15.39672 -9.637,6.16473 -35.603,18.52875 -44.0587,20.97913 -9.0977,2.6364 -22.99448,4.62118 -44.1379,6.30391 -7.392,0.5883 -16.032,1.66391 -19.2,2.39024 -20.9906,4.81254 -127.54013,8.40894 -137.28,4.63366 z m 256.8,-176.429 c 0,-0.22094 -1.62,-1.37082 -3.6,-2.5553 -1.98,-1.18447 -4.6669,-3.05571 -5.9709,-4.1583 -2.0594,-1.74127 -2.1856,-1.76239 -0.96,-0.16074 0.776,1.01418 3.3315,3.06618 5.6788,4.56 4.3715,2.78191 4.8521,3.01114 4.8521,2.31434 z M 1182.0021,256.8 c 0.011,-2.112 0.2072,-2.86296 0.4369,-1.66881 0.2296,1.19416 0.2209,2.92216 -0.019,3.84 -0.2403,0.91785 -0.4282,-0.0592 -0.4175,-2.17119 z"
       id="path1"
       sodipodi:nodetypes="ssssssssssssssssssssssscsssssssssssssssssssssssssssssssssssssssssssssscsssssscsssssssssssssssssssssssscsssscssssssssssssssssssssssssssscssscssssssssssssssssssssscsccc" />
  </g>
</svg>
